<mxfile host="app.diagrams.net" agent="Mozilla/5.0 (Windows NT 10.0; Win64; x64) AppleWebKit/537.36 (KHTML, like Gecko) Chrome/130.0.0.0 Safari/537.36" version="24.8.3">
  <diagram name="Página-1" id="DYThjr_iLeReZ87HD0wd">
    <mxGraphModel dx="4871" dy="1297" grid="1" gridSize="10" guides="1" tooltips="1" connect="1" arrows="1" fold="1" page="1" pageScale="1" pageWidth="827" pageHeight="1169" math="0" shadow="0">
      <root>
        <mxCell id="0" />
        <mxCell id="1" parent="0" />
        <mxCell id="XxjnSEMZ1NFvPs1HtGaW-88" value="" style="rounded=0;whiteSpace=wrap;html=1;dashed=1;dashPattern=8 8;" vertex="1" parent="1">
          <mxGeometry x="-110" y="460" width="440" height="580" as="geometry" />
        </mxCell>
        <mxCell id="8nYfwet6e0uYRjCv7BCh-5" value="" style="group" parent="1" vertex="1" connectable="0">
          <mxGeometry x="770" y="305" width="60" height="63" as="geometry" />
        </mxCell>
        <mxCell id="8nYfwet6e0uYRjCv7BCh-1" value="" style="outlineConnect=0;dashed=0;verticalLabelPosition=bottom;verticalAlign=top;align=center;html=1;shape=mxgraph.aws3.instance;fillColor=#F58534;gradientColor=none;" parent="8nYfwet6e0uYRjCv7BCh-5" vertex="1">
          <mxGeometry width="60" height="63" as="geometry" />
        </mxCell>
        <mxCell id="8nYfwet6e0uYRjCv7BCh-3" value="Pedidos" style="text;html=1;align=center;verticalAlign=middle;whiteSpace=wrap;rounded=0;" parent="8nYfwet6e0uYRjCv7BCh-5" vertex="1">
          <mxGeometry y="20" width="60" height="30" as="geometry" />
        </mxCell>
        <mxCell id="8nYfwet6e0uYRjCv7BCh-6" value="" style="group" parent="1" vertex="1" connectable="0">
          <mxGeometry x="770" y="212" width="60" height="63" as="geometry" />
        </mxCell>
        <mxCell id="8nYfwet6e0uYRjCv7BCh-2" value="" style="outlineConnect=0;dashed=0;verticalLabelPosition=bottom;verticalAlign=top;align=center;html=1;shape=mxgraph.aws3.instance;fillColor=#F58534;gradientColor=none;" parent="8nYfwet6e0uYRjCv7BCh-6" vertex="1">
          <mxGeometry width="60" height="63" as="geometry" />
        </mxCell>
        <mxCell id="8nYfwet6e0uYRjCv7BCh-4" value="Produção" style="text;html=1;align=center;verticalAlign=middle;whiteSpace=wrap;rounded=0;" parent="8nYfwet6e0uYRjCv7BCh-6" vertex="1">
          <mxGeometry y="20" width="60" height="30" as="geometry" />
        </mxCell>
        <mxCell id="8nYfwet6e0uYRjCv7BCh-7" value="" style="group" parent="1" vertex="1" connectable="0">
          <mxGeometry x="950" y="301.5" width="70" height="70" as="geometry" />
        </mxCell>
        <mxCell id="8nYfwet6e0uYRjCv7BCh-8" value="" style="outlineConnect=0;dashed=0;verticalLabelPosition=bottom;verticalAlign=top;align=center;html=1;shape=mxgraph.aws3.instance;fillColor=#F58534;gradientColor=none;" parent="8nYfwet6e0uYRjCv7BCh-7" vertex="1">
          <mxGeometry width="70" height="70" as="geometry" />
        </mxCell>
        <mxCell id="8nYfwet6e0uYRjCv7BCh-9" value="Pagamento" style="text;html=1;align=center;verticalAlign=middle;whiteSpace=wrap;rounded=0;" parent="8nYfwet6e0uYRjCv7BCh-7" vertex="1">
          <mxGeometry y="22.222222222222225" width="70" height="33.333333333333336" as="geometry" />
        </mxCell>
        <mxCell id="8nYfwet6e0uYRjCv7BCh-11" value="" style="group" parent="1" vertex="1" connectable="0">
          <mxGeometry x="770" y="402" width="60" height="63" as="geometry" />
        </mxCell>
        <mxCell id="8nYfwet6e0uYRjCv7BCh-12" value="" style="outlineConnect=0;dashed=0;verticalLabelPosition=bottom;verticalAlign=top;align=center;html=1;shape=mxgraph.aws3.instance;fillColor=#F58534;gradientColor=none;" parent="8nYfwet6e0uYRjCv7BCh-11" vertex="1">
          <mxGeometry width="60" height="63" as="geometry" />
        </mxCell>
        <mxCell id="8nYfwet6e0uYRjCv7BCh-13" value="Produtos" style="text;html=1;align=center;verticalAlign=middle;whiteSpace=wrap;rounded=0;" parent="8nYfwet6e0uYRjCv7BCh-11" vertex="1">
          <mxGeometry y="20" width="60" height="30" as="geometry" />
        </mxCell>
        <mxCell id="8nYfwet6e0uYRjCv7BCh-14" value="" style="group" parent="1" vertex="1" connectable="0">
          <mxGeometry x="770" y="522" width="60" height="63" as="geometry" />
        </mxCell>
        <mxCell id="8nYfwet6e0uYRjCv7BCh-15" value="" style="outlineConnect=0;dashed=0;verticalLabelPosition=bottom;verticalAlign=top;align=center;html=1;shape=mxgraph.aws3.instance;fillColor=#F58534;gradientColor=none;" parent="8nYfwet6e0uYRjCv7BCh-14" vertex="1">
          <mxGeometry width="60" height="63" as="geometry" />
        </mxCell>
        <mxCell id="8nYfwet6e0uYRjCv7BCh-16" value="Cliente" style="text;html=1;align=center;verticalAlign=middle;whiteSpace=wrap;rounded=0;" parent="8nYfwet6e0uYRjCv7BCh-14" vertex="1">
          <mxGeometry y="20" width="60" height="30" as="geometry" />
        </mxCell>
        <mxCell id="8nYfwet6e0uYRjCv7BCh-31" style="edgeStyle=orthogonalEdgeStyle;rounded=0;orthogonalLoop=1;jettySize=auto;html=1;entryX=0;entryY=0.5;entryDx=0;entryDy=0;" parent="1" source="8nYfwet6e0uYRjCv7BCh-25" target="8nYfwet6e0uYRjCv7BCh-13" edge="1">
          <mxGeometry relative="1" as="geometry" />
        </mxCell>
        <mxCell id="8nYfwet6e0uYRjCv7BCh-32" style="edgeStyle=orthogonalEdgeStyle;rounded=0;orthogonalLoop=1;jettySize=auto;html=1;entryX=0;entryY=0.5;entryDx=0;entryDy=0;" parent="1" source="8nYfwet6e0uYRjCv7BCh-25" target="8nYfwet6e0uYRjCv7BCh-3" edge="1">
          <mxGeometry relative="1" as="geometry" />
        </mxCell>
        <mxCell id="8nYfwet6e0uYRjCv7BCh-25" value="" style="outlineConnect=0;dashed=0;verticalLabelPosition=bottom;verticalAlign=top;align=center;html=1;shape=mxgraph.aws3.api_gateway;fillColor=#D9A741;gradientColor=none;" parent="1" vertex="1">
          <mxGeometry x="540" y="250.5" width="76.5" height="93" as="geometry" />
        </mxCell>
        <mxCell id="8nYfwet6e0uYRjCv7BCh-28" style="edgeStyle=orthogonalEdgeStyle;rounded=0;orthogonalLoop=1;jettySize=auto;html=1;" parent="1" source="8nYfwet6e0uYRjCv7BCh-27" target="8nYfwet6e0uYRjCv7BCh-25" edge="1">
          <mxGeometry relative="1" as="geometry" />
        </mxCell>
        <mxCell id="8nYfwet6e0uYRjCv7BCh-27" value="" style="image;aspect=fixed;perimeter=ellipsePerimeter;html=1;align=center;shadow=0;dashed=0;spacingTop=3;image=img/lib/active_directory/laptop_client.svg;" parent="1" vertex="1">
          <mxGeometry x="390" y="272" width="45" height="50" as="geometry" />
        </mxCell>
        <mxCell id="8nYfwet6e0uYRjCv7BCh-37" value="/products" style="text;html=1;align=center;verticalAlign=middle;whiteSpace=wrap;rounded=0;" parent="1" vertex="1">
          <mxGeometry x="450" y="262" width="60" height="30" as="geometry" />
        </mxCell>
        <mxCell id="8nYfwet6e0uYRjCv7BCh-38" value="" style="outlineConnect=0;dashed=0;verticalLabelPosition=bottom;verticalAlign=top;align=center;html=1;shape=mxgraph.aws3.sns;fillColor=#D9A741;gradientColor=none;" parent="1" vertex="1">
          <mxGeometry x="1110" y="412" width="76.5" height="76.5" as="geometry" />
        </mxCell>
        <mxCell id="8nYfwet6e0uYRjCv7BCh-39" style="edgeStyle=orthogonalEdgeStyle;rounded=0;orthogonalLoop=1;jettySize=auto;html=1;entryX=0;entryY=0.5;entryDx=0;entryDy=0;" parent="1" source="8nYfwet6e0uYRjCv7BCh-3" target="8nYfwet6e0uYRjCv7BCh-9" edge="1">
          <mxGeometry relative="1" as="geometry" />
        </mxCell>
        <mxCell id="8nYfwet6e0uYRjCv7BCh-40" style="edgeStyle=orthogonalEdgeStyle;rounded=0;orthogonalLoop=1;jettySize=auto;html=1;" parent="1" source="8nYfwet6e0uYRjCv7BCh-9" target="8nYfwet6e0uYRjCv7BCh-3" edge="1">
          <mxGeometry relative="1" as="geometry" />
        </mxCell>
        <mxCell id="8nYfwet6e0uYRjCv7BCh-41" value="" style="group;fillColor=#f5f5f5;fontColor=#333333;strokeColor=#666666;" parent="1" vertex="1" connectable="0">
          <mxGeometry x="1040" y="92" width="60" height="63" as="geometry" />
        </mxCell>
        <mxCell id="8nYfwet6e0uYRjCv7BCh-42" value="" style="outlineConnect=0;dashed=0;verticalLabelPosition=bottom;verticalAlign=top;align=center;html=1;shape=mxgraph.aws3.instance;fillColor=#6CF51D;gradientColor=none;" parent="8nYfwet6e0uYRjCv7BCh-41" vertex="1">
          <mxGeometry width="60" height="63" as="geometry" />
        </mxCell>
        <mxCell id="8nYfwet6e0uYRjCv7BCh-43" value="MERCADO PAGO" style="text;html=1;align=center;verticalAlign=middle;whiteSpace=wrap;rounded=0;" parent="8nYfwet6e0uYRjCv7BCh-41" vertex="1">
          <mxGeometry y="20" width="60" height="30" as="geometry" />
        </mxCell>
        <mxCell id="8nYfwet6e0uYRjCv7BCh-46" style="edgeStyle=orthogonalEdgeStyle;rounded=0;orthogonalLoop=1;jettySize=auto;html=1;" parent="1" source="8nYfwet6e0uYRjCv7BCh-43" target="8nYfwet6e0uYRjCv7BCh-8" edge="1">
          <mxGeometry relative="1" as="geometry" />
        </mxCell>
        <mxCell id="8nYfwet6e0uYRjCv7BCh-47" style="edgeStyle=orthogonalEdgeStyle;rounded=0;orthogonalLoop=1;jettySize=auto;html=1;" parent="1" source="8nYfwet6e0uYRjCv7BCh-9" target="8nYfwet6e0uYRjCv7BCh-38" edge="1">
          <mxGeometry relative="1" as="geometry" />
        </mxCell>
        <mxCell id="8nYfwet6e0uYRjCv7BCh-48" style="edgeStyle=orthogonalEdgeStyle;rounded=0;orthogonalLoop=1;jettySize=auto;html=1;" parent="1" source="8nYfwet6e0uYRjCv7BCh-4" target="8nYfwet6e0uYRjCv7BCh-38" edge="1">
          <mxGeometry relative="1" as="geometry" />
        </mxCell>
        <mxCell id="8nYfwet6e0uYRjCv7BCh-49" style="edgeStyle=orthogonalEdgeStyle;rounded=0;orthogonalLoop=1;jettySize=auto;html=1;entryX=0;entryY=0.48;entryDx=0;entryDy=0;entryPerimeter=0;" parent="1" source="8nYfwet6e0uYRjCv7BCh-3" target="8nYfwet6e0uYRjCv7BCh-38" edge="1">
          <mxGeometry relative="1" as="geometry">
            <Array as="points">
              <mxPoint x="910" y="340" />
              <mxPoint x="910" y="449" />
            </Array>
          </mxGeometry>
        </mxCell>
        <mxCell id="8nYfwet6e0uYRjCv7BCh-50" style="edgeStyle=orthogonalEdgeStyle;rounded=0;orthogonalLoop=1;jettySize=auto;html=1;" parent="1" source="8nYfwet6e0uYRjCv7BCh-13" target="8nYfwet6e0uYRjCv7BCh-25" edge="1">
          <mxGeometry relative="1" as="geometry">
            <mxPoint x="620" y="292" as="targetPoint" />
            <Array as="points">
              <mxPoint x="690" y="437" />
              <mxPoint x="690" y="292" />
            </Array>
          </mxGeometry>
        </mxCell>
        <mxCell id="8nYfwet6e0uYRjCv7BCh-51" value="" style="outlineConnect=0;dashed=0;verticalLabelPosition=bottom;verticalAlign=top;align=center;html=1;shape=mxgraph.aws3.api_gateway;fillColor=#D9A741;gradientColor=none;" parent="1" vertex="1">
          <mxGeometry x="560" y="102" width="76.5" height="93" as="geometry" />
        </mxCell>
        <mxCell id="8nYfwet6e0uYRjCv7BCh-53" style="edgeStyle=orthogonalEdgeStyle;rounded=0;orthogonalLoop=1;jettySize=auto;html=1;" parent="1" source="8nYfwet6e0uYRjCv7BCh-52" target="8nYfwet6e0uYRjCv7BCh-51" edge="1">
          <mxGeometry relative="1" as="geometry" />
        </mxCell>
        <mxCell id="8nYfwet6e0uYRjCv7BCh-52" value="" style="image;aspect=fixed;perimeter=ellipsePerimeter;html=1;align=center;shadow=0;dashed=0;spacingTop=3;image=img/lib/active_directory/laptop_client.svg;" parent="1" vertex="1">
          <mxGeometry x="420" y="105" width="45" height="50" as="geometry" />
        </mxCell>
        <mxCell id="8nYfwet6e0uYRjCv7BCh-54" style="edgeStyle=orthogonalEdgeStyle;rounded=0;orthogonalLoop=1;jettySize=auto;html=1;entryX=0.5;entryY=0;entryDx=0;entryDy=0;entryPerimeter=0;" parent="1" source="8nYfwet6e0uYRjCv7BCh-51" target="8nYfwet6e0uYRjCv7BCh-2" edge="1">
          <mxGeometry relative="1" as="geometry" />
        </mxCell>
        <mxCell id="8nYfwet6e0uYRjCv7BCh-55" value="COZINHA" style="text;html=1;align=center;verticalAlign=middle;whiteSpace=wrap;rounded=0;" parent="1" vertex="1">
          <mxGeometry x="412.5" y="155" width="60" height="30" as="geometry" />
        </mxCell>
        <mxCell id="XxjnSEMZ1NFvPs1HtGaW-6" value="/orders&amp;nbsp;&lt;span style=&quot;font-size: 14px;&quot; class=&quot;hljs-comment&quot;&gt;---&amp;gt; /service-orders/orders&lt;/span&gt;&lt;br&gt;/products&amp;nbsp;&lt;span style=&quot;font-size: 14px;&quot; class=&quot;hljs-comment&quot;&gt;---&amp;gt; /service-products/products&lt;/span&gt;" style="text;whiteSpace=wrap;html=1;fontSize=14;" vertex="1" parent="1">
          <mxGeometry x="-1980" y="628.5" width="340" height="100" as="geometry" />
        </mxCell>
        <mxCell id="XxjnSEMZ1NFvPs1HtGaW-26" style="edgeStyle=orthogonalEdgeStyle;rounded=0;orthogonalLoop=1;jettySize=auto;html=1;entryX=0;entryY=0.5;entryDx=0;entryDy=0;entryPerimeter=0;" edge="1" parent="1" source="XxjnSEMZ1NFvPs1HtGaW-27" target="XxjnSEMZ1NFvPs1HtGaW-60">
          <mxGeometry relative="1" as="geometry" />
        </mxCell>
        <mxCell id="XxjnSEMZ1NFvPs1HtGaW-27" value="" style="image;aspect=fixed;perimeter=ellipsePerimeter;html=1;align=center;shadow=0;dashed=0;spacingTop=3;image=img/lib/active_directory/laptop_client.svg;" vertex="1" parent="1">
          <mxGeometry x="-2100" y="603.5" width="45" height="50" as="geometry" />
        </mxCell>
        <mxCell id="XxjnSEMZ1NFvPs1HtGaW-59" value="AWS Cloud" style="points=[[0,0],[0.25,0],[0.5,0],[0.75,0],[1,0],[1,0.25],[1,0.5],[1,0.75],[1,1],[0.75,1],[0.5,1],[0.25,1],[0,1],[0,0.75],[0,0.5],[0,0.25]];outlineConnect=0;gradientColor=none;html=1;whiteSpace=wrap;fontSize=12;fontStyle=0;container=1;pointerEvents=0;collapsible=0;recursiveResize=0;shape=mxgraph.aws4.group;grIcon=mxgraph.aws4.group_aws_cloud_alt;strokeColor=#232F3E;fillColor=none;verticalAlign=top;align=left;spacingLeft=30;fontColor=#232F3E;dashed=0;" vertex="1" parent="1">
          <mxGeometry x="-1650" y="210" width="1200" height="850" as="geometry" />
        </mxCell>
        <mxCell id="XxjnSEMZ1NFvPs1HtGaW-25" value="" style="outlineConnect=0;dashed=0;verticalLabelPosition=bottom;verticalAlign=top;align=center;html=1;shape=mxgraph.aws3.api_gateway;fillColor=#D9A741;gradientColor=none;" vertex="1" parent="XxjnSEMZ1NFvPs1HtGaW-59">
          <mxGeometry x="110" y="372" width="76.5" height="93" as="geometry" />
        </mxCell>
        <mxCell id="XxjnSEMZ1NFvPs1HtGaW-61" style="edgeStyle=orthogonalEdgeStyle;rounded=0;orthogonalLoop=1;jettySize=auto;html=1;" edge="1" parent="XxjnSEMZ1NFvPs1HtGaW-59" source="XxjnSEMZ1NFvPs1HtGaW-60" target="XxjnSEMZ1NFvPs1HtGaW-25">
          <mxGeometry relative="1" as="geometry" />
        </mxCell>
        <mxCell id="XxjnSEMZ1NFvPs1HtGaW-60" value="" style="outlineConnect=0;dashed=0;verticalLabelPosition=bottom;verticalAlign=top;align=center;html=1;shape=mxgraph.aws3.internet_gateway;fillColor=#F58534;gradientColor=none;" vertex="1" parent="XxjnSEMZ1NFvPs1HtGaW-59">
          <mxGeometry x="-36" y="382.5" width="69" height="72" as="geometry" />
        </mxCell>
        <mxCell id="XxjnSEMZ1NFvPs1HtGaW-49" style="edgeStyle=orthogonalEdgeStyle;rounded=0;orthogonalLoop=1;jettySize=auto;html=1;entryX=0.356;entryY=0.61;entryDx=0;entryDy=0;entryPerimeter=0;" edge="1" parent="XxjnSEMZ1NFvPs1HtGaW-59" source="XxjnSEMZ1NFvPs1HtGaW-25" target="XxjnSEMZ1NFvPs1HtGaW-50">
          <mxGeometry relative="1" as="geometry">
            <mxPoint x="210" y="418.5000000000002" as="targetPoint" />
          </mxGeometry>
        </mxCell>
        <mxCell id="XxjnSEMZ1NFvPs1HtGaW-62" value="EKS" style="points=[[0,0],[0.25,0],[0.5,0],[0.75,0],[1,0],[1,0.25],[1,0.5],[1,0.75],[1,1],[0.75,1],[0.5,1],[0.25,1],[0,1],[0,0.75],[0,0.5],[0,0.25]];outlineConnect=0;gradientColor=none;html=1;whiteSpace=wrap;fontSize=12;fontStyle=0;container=1;pointerEvents=0;collapsible=0;recursiveResize=0;shape=mxgraph.aws4.group;grIcon=mxgraph.aws4.group_ec2_instance_contents;strokeColor=#D86613;fillColor=none;verticalAlign=top;align=left;spacingLeft=30;fontColor=#D86613;dashed=0;" vertex="1" parent="XxjnSEMZ1NFvPs1HtGaW-59">
          <mxGeometry x="290" y="70" width="860" height="730" as="geometry" />
        </mxCell>
        <mxCell id="XxjnSEMZ1NFvPs1HtGaW-8" value="" style="group" vertex="1" connectable="0" parent="XxjnSEMZ1NFvPs1HtGaW-62">
          <mxGeometry x="130" y="270" width="130" height="138" as="geometry" />
        </mxCell>
        <mxCell id="XxjnSEMZ1NFvPs1HtGaW-9" value="" style="outlineConnect=0;dashed=0;verticalLabelPosition=bottom;verticalAlign=top;align=center;html=1;shape=mxgraph.aws3.instance;fillColor=#F58534;gradientColor=none;" vertex="1" parent="XxjnSEMZ1NFvPs1HtGaW-8">
          <mxGeometry width="130" height="130" as="geometry" />
        </mxCell>
        <mxCell id="XxjnSEMZ1NFvPs1HtGaW-10" value="Orders" style="text;html=1;align=center;verticalAlign=middle;whiteSpace=wrap;rounded=0;fontSize=16;" vertex="1" parent="XxjnSEMZ1NFvPs1HtGaW-8">
          <mxGeometry y="41.26984126984127" width="130" height="61.90476190476191" as="geometry" />
        </mxCell>
        <mxCell id="XxjnSEMZ1NFvPs1HtGaW-51" value="" style="aspect=fixed;sketch=0;html=1;dashed=0;whitespace=wrap;verticalLabelPosition=bottom;verticalAlign=top;fillColor=#2875E2;strokeColor=#ffffff;points=[[0.005,0.63,0],[0.1,0.2,0],[0.9,0.2,0],[0.5,0,0],[0.995,0.63,0],[0.72,0.99,0],[0.5,1,0],[0.28,0.99,0]];shape=mxgraph.kubernetes.icon2;kubernetesLabel=1;prIcon=svc" vertex="1" parent="XxjnSEMZ1NFvPs1HtGaW-8">
          <mxGeometry x="-13" y="90" width="50" height="48" as="geometry" />
        </mxCell>
        <mxCell id="XxjnSEMZ1NFvPs1HtGaW-54" value="" style="group" vertex="1" connectable="0" parent="XxjnSEMZ1NFvPs1HtGaW-62">
          <mxGeometry x="119" y="510" width="130" height="138" as="geometry" />
        </mxCell>
        <mxCell id="XxjnSEMZ1NFvPs1HtGaW-55" value="" style="outlineConnect=0;dashed=0;verticalLabelPosition=bottom;verticalAlign=top;align=center;html=1;shape=mxgraph.aws3.instance;fillColor=#F58534;gradientColor=none;" vertex="1" parent="XxjnSEMZ1NFvPs1HtGaW-54">
          <mxGeometry width="130" height="130" as="geometry" />
        </mxCell>
        <mxCell id="XxjnSEMZ1NFvPs1HtGaW-56" value="Products" style="text;html=1;align=center;verticalAlign=middle;whiteSpace=wrap;rounded=0;fontSize=16;" vertex="1" parent="XxjnSEMZ1NFvPs1HtGaW-54">
          <mxGeometry y="41.26984126984127" width="130" height="61.90476190476191" as="geometry" />
        </mxCell>
        <mxCell id="XxjnSEMZ1NFvPs1HtGaW-57" value="" style="aspect=fixed;sketch=0;html=1;dashed=0;whitespace=wrap;verticalLabelPosition=bottom;verticalAlign=top;fillColor=#2875E2;strokeColor=#ffffff;points=[[0.005,0.63,0],[0.1,0.2,0],[0.9,0.2,0],[0.5,0,0],[0.995,0.63,0],[0.72,0.99,0],[0.5,1,0],[0.28,0.99,0]];shape=mxgraph.kubernetes.icon2;kubernetesLabel=1;prIcon=svc" vertex="1" parent="XxjnSEMZ1NFvPs1HtGaW-54">
          <mxGeometry x="-13" y="90" width="50" height="48" as="geometry" />
        </mxCell>
        <mxCell id="XxjnSEMZ1NFvPs1HtGaW-74" value="" style="group" vertex="1" connectable="0" parent="XxjnSEMZ1NFvPs1HtGaW-62">
          <mxGeometry x="570" y="510" width="130" height="138" as="geometry" />
        </mxCell>
        <mxCell id="XxjnSEMZ1NFvPs1HtGaW-75" value="" style="outlineConnect=0;dashed=0;verticalLabelPosition=bottom;verticalAlign=top;align=center;html=1;shape=mxgraph.aws3.instance;fillColor=#F58534;gradientColor=none;" vertex="1" parent="XxjnSEMZ1NFvPs1HtGaW-74">
          <mxGeometry width="130" height="130" as="geometry" />
        </mxCell>
        <mxCell id="XxjnSEMZ1NFvPs1HtGaW-76" value="Pagamento" style="text;html=1;align=center;verticalAlign=middle;whiteSpace=wrap;rounded=0;fontSize=16;" vertex="1" parent="XxjnSEMZ1NFvPs1HtGaW-74">
          <mxGeometry y="41.26984126984127" width="130" height="61.90476190476191" as="geometry" />
        </mxCell>
        <mxCell id="XxjnSEMZ1NFvPs1HtGaW-77" value="" style="aspect=fixed;sketch=0;html=1;dashed=0;whitespace=wrap;verticalLabelPosition=bottom;verticalAlign=top;fillColor=#2875E2;strokeColor=#ffffff;points=[[0.005,0.63,0],[0.1,0.2,0],[0.9,0.2,0],[0.5,0,0],[0.995,0.63,0],[0.72,0.99,0],[0.5,1,0],[0.28,0.99,0]];shape=mxgraph.kubernetes.icon2;kubernetesLabel=1;prIcon=svc" vertex="1" parent="XxjnSEMZ1NFvPs1HtGaW-74">
          <mxGeometry x="-13" y="90" width="50" height="48" as="geometry" />
        </mxCell>
        <mxCell id="XxjnSEMZ1NFvPs1HtGaW-79" style="edgeStyle=orthogonalEdgeStyle;rounded=0;orthogonalLoop=1;jettySize=auto;html=1;entryX=0;entryY=0.5;entryDx=0;entryDy=0;" edge="1" parent="XxjnSEMZ1NFvPs1HtGaW-62" source="XxjnSEMZ1NFvPs1HtGaW-80" target="XxjnSEMZ1NFvPs1HtGaW-76">
          <mxGeometry relative="1" as="geometry" />
        </mxCell>
        <mxCell id="XxjnSEMZ1NFvPs1HtGaW-80" value="" style="outlineConnect=0;dashed=0;verticalLabelPosition=bottom;verticalAlign=top;align=center;html=1;shape=mxgraph.aws3.http_notification;fillColor=#D9A741;gradientColor=none;" vertex="1" parent="XxjnSEMZ1NFvPs1HtGaW-62">
          <mxGeometry x="410" y="547.5" width="100.5" height="63" as="geometry" />
        </mxCell>
        <mxCell id="XxjnSEMZ1NFvPs1HtGaW-81" value="" style="edgeStyle=orthogonalEdgeStyle;rounded=0;orthogonalLoop=1;jettySize=auto;html=1;entryX=0;entryY=0.5;entryDx=0;entryDy=0;" edge="1" parent="XxjnSEMZ1NFvPs1HtGaW-62" source="XxjnSEMZ1NFvPs1HtGaW-9" target="XxjnSEMZ1NFvPs1HtGaW-80">
          <mxGeometry relative="1" as="geometry">
            <mxPoint x="-1120" y="509" as="sourcePoint" />
            <mxPoint x="-800" y="737" as="targetPoint" />
          </mxGeometry>
        </mxCell>
        <mxCell id="XxjnSEMZ1NFvPs1HtGaW-82" value="" style="group" vertex="1" connectable="0" parent="XxjnSEMZ1NFvPs1HtGaW-62">
          <mxGeometry x="130" y="50" width="130" height="138" as="geometry" />
        </mxCell>
        <mxCell id="XxjnSEMZ1NFvPs1HtGaW-83" value="" style="outlineConnect=0;dashed=0;verticalLabelPosition=bottom;verticalAlign=top;align=center;html=1;shape=mxgraph.aws3.instance;fillColor=#F58534;gradientColor=none;" vertex="1" parent="XxjnSEMZ1NFvPs1HtGaW-82">
          <mxGeometry width="130" height="130" as="geometry" />
        </mxCell>
        <mxCell id="XxjnSEMZ1NFvPs1HtGaW-84" value="Producao" style="text;html=1;align=center;verticalAlign=middle;whiteSpace=wrap;rounded=0;fontSize=16;" vertex="1" parent="XxjnSEMZ1NFvPs1HtGaW-82">
          <mxGeometry y="41.26984126984127" width="130" height="61.90476190476191" as="geometry" />
        </mxCell>
        <mxCell id="XxjnSEMZ1NFvPs1HtGaW-85" value="" style="aspect=fixed;sketch=0;html=1;dashed=0;whitespace=wrap;verticalLabelPosition=bottom;verticalAlign=top;fillColor=#2875E2;strokeColor=#ffffff;points=[[0.005,0.63,0],[0.1,0.2,0],[0.9,0.2,0],[0.5,0,0],[0.995,0.63,0],[0.72,0.99,0],[0.5,1,0],[0.28,0.99,0]];shape=mxgraph.kubernetes.icon2;kubernetesLabel=1;prIcon=svc" vertex="1" parent="XxjnSEMZ1NFvPs1HtGaW-82">
          <mxGeometry x="-13" y="90" width="50" height="48" as="geometry" />
        </mxCell>
        <mxCell id="XxjnSEMZ1NFvPs1HtGaW-50" value="" style="aspect=fixed;sketch=0;html=1;dashed=0;whitespace=wrap;verticalLabelPosition=bottom;verticalAlign=top;fillColor=#2875E2;strokeColor=#ffffff;points=[[0.005,0.63,0],[0.1,0.2,0],[0.9,0.2,0],[0.5,0,0],[0.995,0.63,0],[0.72,0.99,0],[0.5,1,0],[0.28,0.99,0]];shape=mxgraph.kubernetes.icon2;kubernetesLabel=1;prIcon=ing" vertex="1" parent="XxjnSEMZ1NFvPs1HtGaW-59">
          <mxGeometry x="230" y="355.5" width="103.13" height="99" as="geometry" />
        </mxCell>
        <mxCell id="XxjnSEMZ1NFvPs1HtGaW-53" style="edgeStyle=orthogonalEdgeStyle;rounded=0;orthogonalLoop=1;jettySize=auto;html=1;" edge="1" parent="XxjnSEMZ1NFvPs1HtGaW-59" source="XxjnSEMZ1NFvPs1HtGaW-50" target="XxjnSEMZ1NFvPs1HtGaW-9">
          <mxGeometry relative="1" as="geometry">
            <mxPoint x="380" y="360" as="targetPoint" />
          </mxGeometry>
        </mxCell>
        <mxCell id="XxjnSEMZ1NFvPs1HtGaW-58" style="edgeStyle=orthogonalEdgeStyle;rounded=0;orthogonalLoop=1;jettySize=auto;html=1;entryX=0.005;entryY=0.63;entryDx=0;entryDy=0;entryPerimeter=0;" edge="1" parent="XxjnSEMZ1NFvPs1HtGaW-59" source="XxjnSEMZ1NFvPs1HtGaW-50" target="XxjnSEMZ1NFvPs1HtGaW-57">
          <mxGeometry relative="1" as="geometry" />
        </mxCell>
        <mxCell id="XxjnSEMZ1NFvPs1HtGaW-86" style="edgeStyle=orthogonalEdgeStyle;rounded=0;orthogonalLoop=1;jettySize=auto;html=1;entryX=0.005;entryY=0.63;entryDx=0;entryDy=0;entryPerimeter=0;" edge="1" parent="XxjnSEMZ1NFvPs1HtGaW-59" source="XxjnSEMZ1NFvPs1HtGaW-50" target="XxjnSEMZ1NFvPs1HtGaW-85">
          <mxGeometry relative="1" as="geometry" />
        </mxCell>
        <mxCell id="XxjnSEMZ1NFvPs1HtGaW-63" value="" style="shape=image;verticalLabelPosition=bottom;labelBackgroundColor=default;verticalAlign=top;aspect=fixed;imageAspect=0;image=data:image/png,iVBORw0KGgoAAAANSUhEUgAAAUUAAAFcCAYAAABfrawOAAAAAXNSR0IArs4c6QAAAARnQU1BAACxjwv8YQUAAAAJcEhZcwAADsMAAA7DAcdvqGQAAFLwSURBVHhe7b1pjCbZdab3xvatudTS1TuXZlPiUKRkihRNaizOUKJmRoLGHsCChRlJFuwftgED9g/P2AMYkH/Yf2RobBiGF4xhQRCgETy2NVpgyZI1kMiRRFKkuO9ks9nNZi+1V+XyLbH6fc+NyIyqziqqsrL7y8w6T9XJ2CPuvXHvG+fcWL6oIXAcx3GMuB06juM4xEXRcRynh4ui4zhODxdFx3GcHi6KjuM4PVwUHcdxergoOo7j9HBRdBzH6eGi6DiO08NF0XEcp4eLouM4Tg8XRcdxnB4uio7jOD1W/pUcHbxLQNTa3oxuJArDhkvDmK1l2DZ76x/A/qp73G31w1DTtM8u/Z0Ztx+sl55uUW/WiUT5OCib4WzdvrQrne5c3j91u6fI/oW973NrGlSHwrHDWq9e33nQWbkoSlCWVq0jZE2ElDMiUxn9qZRCIFMlbjgVmTVItakt0ljSqZLoavjtQ8LdQ7nV0KbbjeL+SgfQ7fogdOiiHSY0ud4aKg+JNtQBo27/GueApvW7+e2sE4myWNKUH+WhK6uYc1Kazhgami3hGg1LJ5Jp6f76d+NuZaN9FFYrIh4ztrIP5a6l/NMwdVGFmidE573mOqo//TrE6nXXYzgPFscmfFallEaYTpgpabR2Rmg8XW1XYwurGd2ENunGOxNqG+3QoOA2Et3WOr/hjkZhu6PZts2eIFoSeBwNDctUN64/kmIelytJ5m2cf08yytbtRR+uPJrblkzTWoty3Jk4sGw70/I7mpZ3Z6HdZ7dQUzaUFOo87w/D2o7zaljnWOtWSJAGeRIRm0/CBNnMgIaq1LGkI3gbJiKs9fZPQ4pOFZW2RFgb4F95f/onmrpb1k63f5V1zYni/cZ6IN+tiPaWq+Fzj/KE2mNpltDsEOZ1XpOm1Djl32Q2PJkoPwuaxD1j1hLU8gaZHytb/dEiYUXCctcFwcpDs3hBsYvTXcrYdnIHuKzksZq2/OyYNsY5uuDJS63ly2r/NDvXTB/PUW2CzZK/y+6dB4+Vi6I1DYU4giFVpyJWhflHQ1VaJTNWA7R121amhazXBaeD4KiKh3+Smm5cSzS0ltjuMxCWSlj7c1/FXYuIaakUQHMdE0OmX/mQp2thYtjzvoUOgJCH4OVEDOVOtCg2rShGEkWGxRLGNpcqWl3oVML6E0paZa6/wb+LTBS1wh24myiq3HheG5Z33e6z+2f75gVR4fTexdYSxG0ojjVHtZZK/m5HcB4sjocoVnmolRQRBaKVKnhYaBU5VT22iq0GKAGSd0JTxx0rd85qLakRQWQkiPuiqLmq/NaAWrpMa66kOGx9MHcrokg9is0ux5Qe7T94ISFs7EyeDI/Q280tx7vbwY87ylOlk8NMMPs6b7psmW/W5qsTHQ2thLQ6h/vlQQm7SxmEi9Yd0LkpVPYcjxlPMKqoWFnUMWFlzx0nFOqYQx1bSAxNENvdUsr3ljnO6kVRXoJEUZVYYpikFg51IqfKapVWrU1JlSgyXFbnebCY64cufW2x/zeIosY7QVRGbTc90/73/dODuWsJMS2RhY9MixGOrWEwCX04fuhTC+nQn66t39UROgHYfRSia4LKVyadbHTRokDtn4lgEiib05arxOmuRayN7oB5gLnqBEdi1oukRmmiqH2y7Om1JtHQ6o+tS7PjaZ/tfu2iG0Yd5ziIIg9ftuEn4+Q6kcjZPUv+DUGwRFH6F1qOaneFOg53FE1m1IelS3+fvuJoOw4lTjWH1mg5pWmtNbAj3bkY7lZEjfbHxfJmQgd+2HsYhu1CaB/6vdSPpfuy3R51/JPsqSgfJf8o/YkyI4XURc68eprKX/14GmqtvaE8aMHz0hXGHfjunqL8Uh4roUkYJcZMmZU160ZMUYzoLUa6KGmR1rVuGBn3nY44UA4ch1Vh9aJIK1lJRRpCH4lIlyjJYipfTqu0MyvW34qX/tKqfYRhrRldw9FKrPma3JuleTRO74dOQbYkZd+tR28/Na9Gnkib+nA4/pH8NnvSbq3QCPd7KI5d36Ol/ruH78cZZUnnIeRGYkNTH2vNfHdVK6HsS3TMWO4mcjItDzkPl6eDudsy215FrIjDBLETO83URUgpG9BCKUdMl3XDWBrlYXL5YMqhljsOq8KxEMVWNxoKXUMvUIKimWoK9uRZqcY0CI4H29eS83cL+lsDVnpuP6Gp2hvSIW3YtaNaG3Go2MkszO5CtuAtdivfOwrR5nSMEiYzpllpcnfao6SxkUdCy+gFy1esy5yeLX3GlI1QK8vNUqNUPk8IqjL73hsvZE1Bbyx0Emha4WwljUrog2dD8FS1FyJbwVBfbMRyibkfXfb2Tsw9UrHcOhnUgRKmZZA0SNvi1Pw5hTCLR6xRPB9ViQmjEYkjctYkXZAn63ahuqtH6jwwHIMbLWwsrJ+WCNXJKA8NZs//Yu2uM4oJG0+W4cYWK/Iww2AU48aiwMYow5BrZV0utK/lnJWf4iMRtJhO++ICOwpN8zusIcibOGyD4LYxU2AtXuM0tsgQSGteOGaez5iTBsOBxJCh//aWiSSmG9xmzMOfHE+lqzISkZC7Bru7W5gMB0hS5l9emBakA1Qly51DSaZigJh5T2qF1/LUdHnTDqRgOgf3ThOnmLEGxPRGRyxuqzc6Pi8+ehQn51HTyRp2KYZpMubyGMVyQaeyxnQ0ac8/98Ohi6IjVi6KOrg65YWaRUxR5CWcxspt8xNWYl7pR+vY2l4gG47VxkI/FuvwYrmD9SHlhUKoRiCPzUSvlBfAxqH9FByXm2k7lDhqlOPWBnjUNqw7HNwfBc8YrgVj40PFhEgsswl2Zjmm0zU7XDHbBSXehN3StGDa1s7w+K1rc0Loqo2EXz0XVnoUmqia0e9jniIJI/00nYOBThiHVStYClsljOp7lMc20EXhcKJo29EbtfJTRcp5TPUx6nyOR8CIpmMPJ1jEA15uM6TRmtUEXYwzbq674bpAuSg6YuWiKImy0IekVjkliKzE5t2pkoaHbBd5jSEFUXPCAzsl6sUOdYfji8vcZIezuO3OFm5+59t46dlvYOvKRSRsEBN6L3pAWNsxw9YArFVwZ6FR8xiHbBAJG/4G2+Tu9jaqdIKHnnwrzj31fcCFN7BRnmOrW6c3yCHDf0s5PcqY4VtQ7xbF3UFWjiX9KnK7cKj7YmtGj32S0fva5bm4yhO54Onj+Xj5OWx/5zm88Ny3rNugKRhm02NTIDuQx0hRrLiDBb298pAXBT0IXvBiqL5n3XCLaIN0hOn6GWw8dB7jM2cQf+/beC54sWp4OUrWEU0fwaIZY16kptcMOngeXRSdwLEQRUmgUAgc23OIkklO0AuoaRWv7tvzXayPJxwrsLj+CkZSUHkks1eAVz6Pa5//GL72pS/QE9vB2ekY6wpT84V5kHQkgyiq4mu33HeX6XDDhSscUpS035pCPGTrikcbWDCUuzJvMM82cPapd+DCW38Aa29/N6iWQRzpPc5qijAbrvKuI9OXsV6144qqiEyi8SrhkDcYlVheeQHDMS9kV57FN3/71/Di5z6Kx6cRNnmeRrwolbw4lRTAmvuJU+1H21Ymqo06iq0k7h09q5DZk6oSR4orLaeXXlEcmyRlOafYzgukZy7gnR/6KeB9H2L1okBGG8DGE1a3ujrhouiIYyWKAxMtNiwZK6g6v+VBSCK1Xr68ibNDVtzFNYohPZLZNVz549/CtS99GMPiOuKa3ge3jemBRGyEoyTClOJYqg+J4hWqvARR+7YJG9frgmoWh0FCm9Hra9jwcia7aNgo2ciXyQT19Dyq9YdRn30Sb37vB4F3vBeYcF66jmV6xp5u3GG49yjTuHej6BhyJ1G0ecU2r00X6Rlew8U/+i185cO/izdmczw5qtDceBmDstSptPtdOo/2kID6eU0DtV9O0lM8bPmnvIgmqkDcnEVPERxzyLJXDy53XjM8L5iGwcY5PHNlB+W5N+Jd/85/CLzzR5igCZbZJoajdabEb7Q4gWMiipImiSKn5DoY9BD1tgoXqDHt5HOcGyTI8suIcwrilefx4v/3W9j+xmexMbuEDXqNamt6LKShIDbW0a4bNg0G6jgi9hoYK769aMehda6rUfKw8SFLQWH3kkWYUBiHDIslvuo7K0s2RoX90Rg3MUF17g145F1/A2t//SeAx76Xq4xwvRlhMF7HSbj33FWTTjg0XVJsshkF8cWP4+u/+b9hefk5vOkMQ9RrLyBdbmNtnCDfqZhHefupeWW6ocRSV8UzL1t+eqV+Rp6nw6CLoHUOkjweYBkNUPCipGOkvDgOGFoPk4ZBQ45k8wKupht4afgInv7Qv431D/49pmedJ39TtcRF0TGOhSiqF1GNY6gKbvEUZ9B7WNorfMBWUWOTwjasriMr6SW++EU8//u/gatf+QSeyCpMFzv0SBhK0x1p2AjSOEKSSWa4d3Wy644M/8shDM8pWu+iTUsMTRQP2Sj1SmIehz7JmI07plAoHDaV4y51b6EYbuBiTrk+/2Y8+d4PYfCeHwMefhvq8aMo44mFzq8+PhP3OiHfuX+8kBL1vYahylGXLXlfwt43qmb01Ld4tXoBX/+f/zEeWr6EesbzU+1iLeFylru8Q90Ukwctr7/RY1Xch95HtnI3UeS6Fr8GYbtXtKk9VsO6Ug3GLE91sDCdPLhEMVPUMC/DAwIUze3BBi4NzuHG9BE8+u4P4Mm/8zPA+Eluz3DawnhiIqs06W+oK8Jyr+MJm9WV3Ot3rpzXnpWLorxAhZEShlEj745zlCSK4jZrMqXOqtywWmJteYkN8UU896v/LYZXv4b6+rM4P2iQ2vNpXInbheppEza2PyRcGJZwpFePrU224/eKmk+lN3HYZBi4WzidNmXb4IMAN8Mptmt6TYMpXlwm+MGf/0+Ap98PnH8Hblbq/xxY0wupCClREUTc9u50eTts6rUH/dOzoQo35VcrzSohvTwZBHBBr28wXMfl7RJn1tc4f4Zk53ng+vN4/tf/R4xe+hw2yxtcl+Kj7guVRJc0olHzzLlEV6K9XNr5UkZ7K98rtmnYoy5MtkdOhnNqlz5UOc8OL5JzaifGG6hoL16neD/yBJ78qZ8D3vZjqNaeArJzXJeebco6WMy57hA5r6LLeKSU09/nPrmPulLEwfOVcv88pr7v5MJ4evhure51I/gJ1nx6Fqq7Rtd0ma4WyD/2JyhffhaT+TWcT+UFMCxiY1QjjuxdaBn3Zq1C1u6krbMayCuzB6hbs4Z5SNO+Ugqg7kIrJAx7C3sMx2yws73N9rPApNnFhWGJv/zNX+P8Xey8/G27IWTP1tkWnb2e6Hih9DUaUqD0d2lpMBpmmFMYNyiIWrMs6SGOa+z++f+D4bVnsV7dxKieMVTNWRa3CqKwMmfZKNTVuQovcnbnS3vcP9Y9G8+xRNC8fqZO5yGt6SvqgXKWq4SRmohokCGh1eUCw3KORwcM/S89i5f/6F8A86tIEgoh3fpYd8F1HhcUxYJ1ixfnLoW3ozvfYclBS52TyspFMYhUm5Cudts7qnrMtu9BspJeu4hvfPoTDNPYKMsco3Ro61jdXCE6vgktm09nypfaiuavT5lOCqfuwtbzHYzZYL/8z38da5ucX+5yXYnialA6g4V78OGZPZl8H50LTnCoLga7R0yhiJkHXHoRX/3UJ9Bw3PpRjzFD3cVSJinKZb6kURjTBHrO/MpL38HVz34C2LnGvFMEzT1m7gcj6/oQwWPm5ioL7YeRQaN1KPFhiWY6pwWd0ZWi6qSqZf016uhWyKg3HCiMqowDNtZRwyA638L8859AvHUZG0M216pAXVTIBsejQso7stBRYbO8TxMTwmGZ5/aa35WXruHMKMUj60O8+NXP0TPZpTeyzXXUibA6TBCZbuVB6VaJmiBK69QJm5cYjaf2WvGA5Z4lFb75kT9CsnsDU2503EVRoXO5WDAvFSPizG7CSRhH9NIvbE7w3Gc+Dlx/iSew5CpFUD/mN+FFt2DedaFQ/VQ5KRLRe/cqlsDxqH/O0XEsRDE8tM26aKLI6qcPPNCsfw68eutB4O2LeO6TH8E5zDFsFmy8OfKFKvDKs2DCJ4K3+Orw0UL0qsSZCfNazDG//CLedHaMqx/+fXooVymOuv9+60av351QHld3RDTkf5WmlSg9doXRlqxwdwr1kuVe6W2VHM9/+mN4SA8+c1r9p8eStkibkkImQad3OBwN6SE2KJcz1Pmc52OGdOtl4OJzPA8zlAyvc7s5x3qYDDCkqX7qAi1BtM+QsIBCtQs9ia/XmXJeH1auKKpQFrJRONTTJFnpAha9u6yvK6KmR7VzEfkr38KUnlVErzGN1f/D1fTlgbbyrxSmwbzDA9KSjkYoFhVGa2OG/nOssXElDNee+cs/s4aom0srvt/FNOwLW/ByeS7aob2GV+l5TJ4b3YB45XmM5tcxKZl2vVVkLuUxhXlQNclYpSKKf72Ymac4GaYYqKrNtjDavYqXP09vcXadopkiG02QM78lIxH9VIVqY3en3H4Ay3YbuhdcFk8fKxfFgBqV7oFG4XUv85JCZ7865KkkwHe+gYcyhm7zqxjSU4klLGqk9/Hg75HQ1zJL9qvTstxd2Hcidi5SEKcDjFFgjR5wxkZor/HojvsKMS+1i5ttWkapY15CtxoTb5+94SjL/eon/xQXsgqDcpde/JKbHg9RtHSHqrOXF4PjeoumZh6KRYm4bkwQB/QYJ7y4TvObeOUrn+KJ2g5Z5Qa11StO6IMWujo0FQf6LaDw0xc61qsP5JwGVM1XTGiCqsyqjHufRTS0jIJR7OLat7+O8+MIMSvueMD1pJVarjBnlfWyOzaHISdsUHvpobBT5NPBEMPpFGtnYhQ7OT3dBaZxjQHzheee4XqrFRVLt9KsPLRp1zyJosy+bJ0xVlahZ8Azn/04ps3MBCW8wq21V00o/QPTImWn56cL03BIMaQiVszTYpehP0X98fUBkvkN68fRXeel+quZ7TRLqIXMcxcCcKh/4UGflgMO55xsjoEoEqYiXIFD/e1u6oU56t+pcPmVF1Dnu9Y2yyW9LDZOVc6y1NV7xbRComcVZZ2XZT+mxPGSSrPQ13DodSjdUVWhmu9ic8SJK3pFTo+ntDshr3coHfHCEi5KwUyiOW1v/Oh27HAUGr8eiGf4nNU8D9UONSLfy/tqUeI6O4Culner1LV9b3GsjxgxHC53r2FdPzi+dR3RIKXQ642YQKQVzRO2UuHmvFC0U7qhFj6ma4ucU8LxEEXWqq6+Wv1SjVSj1LiqH0OXEGLSON4uZupbTyZMrZTwloxutciL6Jke3lb6bEg4qr5Q64crFqgpjl1OV4HSFjwfpi90JhoakyeuWwuWaD0VoGKOSkb8S7PDvoVy9Ci1B5Sh0ns7t62m8xAeu1fdUn7sbAVsRPNCPkN/d3vFJiq1sOyAYzsnlmMhil2VbuXDvJa9lGlBFXpxgk/IdTjYa7/yyNrRVWGCstdYmHhrTCFVluLWa+zEMaIqSoqqIsdy0X6LcYUoXcGU1jBPhGCRc9sLjz0dwGl9hEG2t35vm1VyYFK6mf0FlvDWNNAyu2tH40R7FgkFL+IF2SqcVtcSvb3SVs89D7LdkXMq6KTnWKDEyHr1lYSKqu8Q2jsK8lhYD+21vmOAxERpUxSl1/KkGyaRajnycPXsohqcstFtwZVie/iXnpge/2iXrI4givbKGpMSNMByFhabarSiyIV6a0TPZJp3rHeaueykYrmM9TWmtvZJFBkWa8o6E+ztKJWDSkQXPr2BpCmh+epwOCaV0TkSwrlfIapO1iA51G/c2WcSNY8zLHH2UFiKUhZnrLzh+3fa0B42tq3bjVaK8hB8RnuYWQ3LTI8OcWgtiX4X59kNIuWPymmCuVKU7vDurlKiMg+PSGmZGn0QBC1RmK2Ct2cxOVTgWUY6a6vNg45+UAqUhVA7gu2vuW/hgx4pCrvbrP5DnhNGJuHZS4mijKXAC0LDOqj9aMv98nFRPG2sXBQ7VNHU153W+9XXKp6ektUbLhRDCWJln57SPP2kFcfkvawQHV1CZ82OQ/lNYaYttnnyuPQlmP2kUljoKUoQVy+KQiUaHpa3Cw0t0ZdslCdlRHmx/CitFAXlidPyEmsTxWNTjW6jK9uQbjsBt5m83VK/Nc4LrolirfxxkT3QLguP4HT9rrastf4NGOf0cGxqsxKi58f0WSlWV8OuyRa68SouQYwHrLMDzlPlVSNmY1blXDFKYWgyEgs2kl6alC/9iJaEUQJoUZrmWWMKnuNqUSm3/6yh8w+TpnHzerWKzddIODP2hg6HugTIWzSBOUbsJdfo0maXrVeZPR2Q8ILbPZfIeeoLCa8uqiBCf7bWNVQure0fySacU0LbRI8Lqng01jFV2VDZON16U/YzmnaZbivvsamQbRNTH6KJ3T6WQoZj1sgs7V2qNcLGZp9KC37IrYQ8v5r+elrnTuvdB2065T9KLMM8VRbmz0Sc3iEvTJ2shHnHEaWrS1s3fquF86ZxYtVK568LieX339o9oLHuoxnB2+TYMbsoOPfHykUxiIEqoZw/eh32qXrOs7cHOFQDtcZYMKSb05tcsBmGB2oV2NT2qI7WWR16FczaR18gOK0vqShPaZraTyUo2VqluzHTVPoeNdffywON/+3rKxpV+9xbor+aEaaM3ujhCX5Q2D/hBahJWbZMQgx955Geuc5Hok9+LXkqSnrr9tNT0HvQA84zsTxGSKL2LQj3nUx9h0P9XIFueOmLF+rDyWjaGCNuPeWoumy4H85T9VSgbddphdyMXlRSzunhWJxN1S81SjX58DZIaO0WOe9NW6DDyU4swzZBNFfHrUffn9IjOOr/bNQHGpLbWxyaqmVPImpCqmEYHEy38I4r3Af9ffI8MMH67GwoZJplQMInUzgpDyqhVrbP992y/clCZyJ8DzPkjVevMCShQ0RNZM9f3ofnTLKqL0T2PUnn5OOXOMdxnB4uio7jOD1cFB3HcXq4KDqO4/RwUXQcx+nhoug4jtPjxIjiQb9Zsvq3QRzHOW24p+g4jtPDRdFxHKeHi6LjOE4PF0XHcZweLoqO4zg9XBQdx3F6uCg6juP0cFF0HMfp4aLoOI7Tw0XRcRynh4ui4zhODxdFx3GcHi6KjuM4PVwUHcdxergoOo7j9HBRdBzH6eGi6DiO08NF0XEcp4eLouM4Tg8XRcdxnB4uio7jOD1cFB3HcXq4KDqO4/RwUXQcx+nhoug4jtPDRdFxHKeHi6LjOE4PF0XHcZweLoqO4zg9XBQdx3F6uCg6juP0cFF0HMfp4aLoOI7Tw0XRcRynh4ui4zhODxdFx3GcHi6KjuM4PVwUHcdxergoOo7j9HBRdBzH6eGi6DiO08NF0XEcp4eLouM4Tg8XRcdxnB4uio7jOD1cFB3HcXq4KDqO4/RwUXQcx+nhoug4jtPDRdFxHKeHi6LjOE4PF0XHcZweLoqO4zg9XBQdx3F6uCg6juP0cFF0HMfp4aLoOI7Tw0XRcRynh4ui4zhODxdFx3GcHi6KjuM4PVwUHcdxergoOo7j9HBRdJzDEEXtiHPacFF0HMfp4aLoOI7Tw0XRcRynh4ui4zhODxdFx3GcHi6KjuM4PVwUj4jG/raPaXSDpkbcVJysw4yWOoptfVtuy2ScE3WmhZwjC0vCjG7HR0jEfwlTEXOo49WsERXnNGZ9lBhVF6Y4qrme0sytudHRp+r1g7mm6Rwpt8xfk3KYtMvq1vQvRtKeGpWRikKloVIK2zqnBZ1X5z5Rk2giNi2KXR2pmUhi2GAoiHFTshVRQIKGcJ2MjSqzdZJI8pNz4wIollyBK2kdjnErrsvZ3Lnt3/bYmXamdWX32SC1ec4/Rc1BgRmPrpRoVtXtuuJxZE3GGpNiGRUoohIx8xtVUgil6WQi0UuaHKmV+oDFOqRJGMWMRbzDk0HRLHjh4EnhdQwzZnemxZqwcrGVnVOCi+JRwEaidiFhNDPhEm1r2RuoCcpLpHDaw79coIYleg8D275a67h1aTc8aM17RJvK9amZ7rhh+sK+eskhnGfCJwGU8HM9eopRo/lhjRML068zsucpUh6DKb8l/xa08E/EHEg+ZbaJysA5Vbgo3jdsUGwYQQrZQA5qJHsCo5HQ/AKcprcFepdm1jz3T4mtrVXa8dAK+4SjdksPTbt5kGt6ThxPeSgNQ2q744Zj2T/LswRd8nB7uk4WKnPlvM0exzWi8xCGTUwLhWGEM0W6rg7nVOGieJ+oTZg0SSRMKNp2cpA47hHELMiN1m4bJYeSmW7TsIRDzWAoHsJwhWuNrRN6K8N+Dk2XYLpAOlbKvWXcc8oDqD/UjivMdaS1w/DPUqulJxiWHxVPHjxH6RDXlqtQ8uGcNCwbOtI2S9kPvY5tvruT5ZwadOad+6STuM5uEYpbRrn01rjU5slLrGghtA57EFozOCP8Y41vf2ddmL4/5z6wA+lYERt8jawurJ8tbmXX0mweraoL0yi3ycLpIzn6SgllKIljniSItFC2zKvlUxcq9RdzZRkJAXab995853TgonhEBHkK9t2k6lVL25szIXTm1hTArq2pDyv0O3b7FzrCEfpp7YF04ySxCXmHuqtQoWZalC7zpMKKNHlQsiM5+opRWXZ9vLoIVJarcAaCWKo0VNZ1ewpimnJvMLR2Thd+Ro8QNaMDBfGAWbcTvJPQ+MJ+goU5WrK/kzAWlt665N6Rw6cbyPKEuhA+HJNSQDdV4qC76rIgFFxuHlS7bkjGCSaIYvB8JYq6798RLla6+aS5KhWOmijGezfIwsA5PbgoHgW3K1N/XI3mtoYTZkli9lcM0xz2wuSwvL+zjjsvOQztzWei6tBWCZtWX1qwvWPZiASR4b68K1vv5BLypf5RTeQcqtugFby2PMId+dCPG0a5XBPcSKG1c7pwUTxKukZzO5xX0NWIswGKoggz2LAUGlv0VRVIKTAKiJeLGYchkK4q3eg4aIdHh/ZeKn00Deu68xbb5y7jBMtczyRy3YqZGA2xfXOH+aFIRGnQxxOuC8PhEDtb14FMhTBDnS/svFQ8aXGSMnutaHa03RnhshbMOT24KL4esM3IqVJjkicogbE71XWFiiLYhW26sTEapEhCRyL/0w5scK1XGSbuGx1lb2e6maLHgyiGNUVPfYlKU75cchbX3NnC5mSKc2fO26MqpZymdtOTynK5wNp4CFx+EZjfRDZQOB1KudJ54ljXeWC0j+Ic7VlwjgsuikcOm5ApYK/B2DSpg3coj9Buk9QF5rtbnEEPrKA41kuk0iM2t4brRuZGagMN23Fa+LvfJGX3Q0hTux9TuHDTJ9xcaZdVC3pROxxbIikLzLa2sLOr919ONirHslhiY5xi51tfARY3WAZ6y4ilwJOhG016LiDhBU1O8a2oZLrz4pwWQq137o+9NrEviLcII8ct/KRnqKFFnBzX3d2Zwja95ifRKeZcEu511hJQemsSRAumzYPTvrjYCN7L/Z5AiQL9PXvMxBwg7d/uhlsqtQqXVxiPOT27ZuHliNM1PcckSTAcj8I9ihOLMl1hENe4+MyXOblkPrdCVwFPVswLkwQxk8doFwzCQlcfrEouPN3pnCb8jB4VaiSdILYWREXGv1re9iN2nqJkZ76zrT88E2xx9BxR6z6nWp/6rCSPGuv2qdOl/XFMobjN1fDwhHTo3V89m8hpa/jd8cLREr0NPacHld9A/Zk/x5ACfmZtjEGWoCjpVZ1kmOFEZU+x3734Aqf1Hvqc1yDdXgmlr7d7wgP0Wp+XLZqWSBBVPvdT/s7xw0XxiOhEsBvuj/dQ45LqUNDkJcYcL5cMm19mY5S3aI1ToVsQOrVBfZRBnlgngZrXIWGMrd+xP/deoSjw2BFDd0stdxXkIEiCvETUTNOSYf4kwec/9hHES4o4018xrUWhtU4yLFU9tJ3PkCpfl14CUpYEr1i6LNn7LTpfepNI2LnozodzGnFRPAJC4+gayUFi2M7hClbgFBTz0DhRF0t87fOfBXZucj69xEqeF5ujiZ1tYo0whKj60+1bSzq7H9TgJcQ8th2IR2h3GY5EUWR4iUlG8X4e1fZVbOhGxGIXGdM/GSvwPtnojOmLRhOK482//IvQvyHRR8kiYaGYl7hfzrpgdFNdWTmnBxfFI6NrHRLAvl9HU4OSwtiAf9S3SBuwRQ0Yir7y5U8C175NL5GhtPoWuW6hO7vahOPaVB5bzDA2UiirGzN6Hc32plMY5OtwKI3q39SjQtonp/TaIZVBTT9RKnavMUE38ZXf+z8xYRqlj8VMaWFO6crez9FXjdKui9MgqTFgGXzlMx9nMdBjzG8iZkg9UIloJfV/cL1wPvRPJa/Scu6f4HvvXXxUrPuD/VK+bUa71f7yI8JF8QiwNsNTo/u1ek2sMwlX3+2K5VTxpGccH3J+Ui5wNlrgieJlPPv7vwbML7J11rb1Msnsm31Lbc7QNi4ZvtYUp+gGZ8x4JPoxUdq+aXJ39uraAWa1Sg3eOhSX2FksMOc8SbCafqIbD/EC9af/FabbL2KyuIKCYWa2NmJUSfGUlp7gOy06PRLFmGVcLrdxfhLjmX/+T4GtF5DNb3A5zyNPnJ7XLO296Mbee1YfbFTvMu+8iFkh3pmDyr1ven3wJNtBeerb3WlQNTnXYz1TZcppS1pBT50bs/RpDY/DHelg6k9qD1xyfkH7roe4R1wUj5Tgu5k3uGckqOYeGpWU6a7mmJ7hQ8trmF7+JvKP/UtWii06jJcw5Dra2rzFmK5ZSqNQ7n+jJUae19jdZeVhm6xZSe5kCsXvZJaagnJOJSyYnpHEjnOvXb2GrKAAL68DL34Vz37sDzF/4Ut4fD1GltbIlwskep5RtbafuZMIy68pG4zTCGcHFV74zIeBK8/wXDDvV1+0Z0kLllVF711fV9S9+qqRN60GzRC71tMCB5e97KBy7yy8W87hCTVL+215ut0OKpPOStY5+xK9vQhASwehrvMipJcXliUFU/+siukPbe8irIuRrG1nR4SL4orJ6hJnap7457+Olz7yB8ALX8Nw9zIGWy+i3N2i8FCgeM4pm9jFJhblOpaLIR2UDFO6OJvjBCnPoj2xcwiT4NaD82gmj6LKpri2u41hXOIN51KklykMl7+BV37vNzC58i2ciXYoEFeY6rm98VHnOTIKdecMn0SU9JJXntFghDRf0hl/Be+4MMYf/PIvsnHSE1xeRTJoMGAhL3gBuMF1txqORyPkMc9FwgCbDfigsv2rmMrRIvMTapb22/J0L6Y/C8rQDst0VkbIWcb2MXPuN2OZD/Xgbie/nGeKRdO4unbMYz9iUYyo5Cuu0sqwHOGIV44sFLbUn1fgMmaYUjFsvPlNfOFXfgkPv/xpbO68QiGpkFAQSgqKCtbKNuzs5KHSZ3ardA3X4zN4Zj7E+3/xvwfWnwQeejN2wMbHBqhfUZH3KF8x4foRwwhdSSuGd+mQnuOhlYmVkq19OB5gXi4xiApk9A5jlfvV53Dlt38N1774p3jqTISsuoHZzTmFkOnQXZalSp4krMknVBlV7/TKYjZiOdNzuTHLMTr/OG5S8J6dpfjgL/4TrnUOOPNGNOOHeD7CV3PUVEO9Y3lp/D6yfzJLbp/7aXsVVbW0yCe8lKCf/lHZmmBaycgf11K2APsQCZfZAdUIGHLbMrUMbXU0uCiuGD0EHFHUtubqI5yiGF/Ay9UUP/iz/xHw9LuAs0+iyc5ht8lQcp2Yl8jpMGWkodNWYFkVGCZTjrcCdc8wAdxnk+vZvAKgl4psATz3RTz7f/8qGobOb1nn7EsvQm/CJRN7pA+ponh6luXNXaQjZeKkNm2mPZvg6sVdnH94iHyZI52s48q8wXx6ATvTx/COv89zcfbNwObjqLM1etS8SCVD1tIaC70iOJxyLye1Bq4WtnTsFDPWvQGSeGKRUYf5hzUv1HRFrYe7SWmsq6prkcRSHdqq+Qy5XRRPjyiWTLx+CEkfYzi7dhY3twvk2SZupBvIH34K7/zpX6DH+BQwPs+MUpFyxm/lnKrE4Zg70FsvS11BpVKHoDv7uvu8vMkaegkvf/j38K1P/AneNKxwptrGNMpR3rhqZZzomFy1pLuUylvUZVs3I07qCWAj03c3kmyIYhbu/GfTAWo20utVgot5gsX6o3jqhz6Isz/848BjPBf6YSudMPV/Mey28fthxS3wvrmfc2+VivWXFxnEuriPWL3smQcLkaUF9polC8m8cc3UNhTGSjrBiZhB9FG+WeSiuGJKXgV3Y3p+SYosL1DPC4yGY9SDNbw4o2d4/glU9FAefsv3Yfzmv8awekNbsRLR2B7NZdthq7av2xwGlnWVY/nyd3DtW9/A1We/hkm5g2mzwOLGJWzSi42KBTbXWGHzJarFgl4qy76q7To9Xh+iWbYPfp9EuobGZmDazli4VMZSeiQUvGi8hhsFw2pevRbZOjaeeAuefPu7EL/xe5h5ngsJol4JvF9OqjDe74lXA56yHEebLM+zvMhwmGwwahohN6HkqeBqKet8zPZuD9LroHQGCp4s6YaWH50kcu8uiqtFzwQW6ZgNssGwLuz5RXNd+B9r65gtGcYxTK1YaZasJLtcL1f4kEWsOKV9imxE901h9WEIv0lSYsBjT4scG5zKGEon+kkCeoIl0zMYDLF9fQtr9KayISvqfJsVl+doGGGxKBm+n9zylxhVS2ZHEZhupuzUGJ0dYbG1wHAUo1Ij5IVHX1ksYobXPFezaMzrED3IiBcENs4B6+L9dPZb2Z1gUbyfpEvYFskI5594Cm/6nu/D6Kl3hMho+gjr+DmWuYSP50fGUFq6YAeNKJP05iWRLoqn7kYLQ4VCP0dPk9Cop1meYM3TomLgoGJjzelN5mmGMmElUaatNmoFjd7HY8QmigXLtMSYMfGQHmCiV9p44IINXs9CKpSMKN5ppauyHgaiKxUVTIcel2CSD33w40WXDdVFIaHbq1ccsTOjxhgNrDGXunOvBbxI6d9hsP1z073jnDAs10z8YauAynKnHiCZrLPK1XZX/y3v/RAm/8bfpTA+hTI9j3I4wWJZ4Yw+SqIvGJV6dlb3nUcchMD5KMvPRXHV6LPXuTLNIb2/OgkNTA8NxwrN1BJZF7RawUtixQKSLMVNjLRW53NwKg/pKBLuQD9sz2qQUYv1vLlmmXGf9nYLPST9yL+6u+19a56vIIxHEDauGMsq86mh6IrRhioam+rg+bEVO7nkNAc1z92hy/9Vxzh5tEVyKCrw4pKtY3t3xuq/xJlHHsN3GIhEj38/3vL3/xHw6PczWhoh2xhjvrPEMK0xVGii53ZYLxsWvB6XPUpcFFeNSl/awkyUFMVlErwz3WUbUO0S5lXlUccVCgqmfk9Fm+gHpjJOpPq1OQnZfRC1N0vsTRzuS0JrYtzt1x5GU7jCxs/ja71UHXB6u0Cc4BOgn1Qo5Wkz03qYXl6vsqNCVu4qeoQVBnZxUAPUxSNl3UxqBtSsf8p3re8umvfu3Cs1Yw/GJyxzdeHsYGsHGJ5LcSV+GJfW34l3/7v/GHj6r+PmLEIyHmI44DbLOYesj9szpNM1njBVyqOrgH4mjwN7okIfkY2usY/1qS9FT8ANuJhWp4gZvlIbzfSNBhMvNmR9zCCleB7OFC6rsSsUZAVNKHl76SE6hoXyBdOhD0folazwK3+2THaCsexR0HR/U7SnYQ97+5vCWDCsK+Ixh0NdElgGbdPhuuoHPrhs78F0Dk+iHZSXezDrthmwjLd3ELF6bT5GUVyUmMxewhvSG/izX/3vgO98EdnsEiYSRBb5Ul4Az5k+DhzmHG0ldFE8DrQClFLohkWNcR5sxAg1K2NEBa+SZcrpDKNlgmGeIC04v2TooPphfYCHNR5UYTgbv0SxVDjDCldJI2RKW5s+eUnqvQw3FboF7cITinIeUeCCaZwzW9vLGb0Qm8UZ+gkGC5d1119hjVayhQeV7T2YzuFJtIPycg8WNQUWV65ienY93DG5ySIdUxxHMbLrz+Hc7Dl89Xf+KSZneFFeXEa+2MJwPMG8qjDa0N3/o+/CcVFcNWpUXetj49JvJw1ZWTJ941CemT56qr47Ey/6LRSwjB7jQF6j6lUXwt4Ptu+KHqeEj1UiGlAnaXoXVc8iqpa0NSVopTq3Oab3Va1Dp8vACcTyrNBZ/bjMZL84bZk8mhyDZsHwbsHzsmDOwxvQbV/P0WS/qwcnze4XlvGI1ajY2gbW18G/2F2wWPX+884lvGk0w+KZPwM+94dAfhHDSB9DKVHq2cZsyECKdoShs/A+xRVj39VRnwjdkNQaJvOumsIMFTzviqRVHOrryqhddsdFM60Pi6G2lrNS6ebMYbCP1KrT2gpQIhe+vFPyRNQMpfXITlTl1t820LpKngmiwkoJogJP/TSoLTiBhBtXKkgrAivHzkSb57AwoKIXNo/bc1vV38Ni5/AEY971IVG9tr7pZIBLrN+j8+exzGfIt67jic0Jtm/OUG0+jBfSC/j+//yXgQvfhxvVBpL0rG2rl6l0Oo6yCLvT66wKnk3dz7WPCuiKp7Mr05kJbdV0sJu2mmA1SS2VFxSKlV1QKGSHMWuQMu2SFyJ5jVxiFycTWqYp/L5zCJxNjNt06uaEttemJ5b2QhREPeQkCJyszZkW2QWJplkaCo6Hsj98+ZuFEj+5dlCe/opmP+HBKlWrb3FtjV6i+qxTrK9tYufGDOt0BEfFdSQ3vwNceg7YuqwPwIczw03nqrJ2Mo4O9xRXjArfKgbVRbKjRtplRg6hiVY7y7SwM81p17N1Don1ltn+OrSzrqF3c3R29JpVt25YR+mWcNr5Osns5Z/52ivL28ulx946gSCi98edDnXcud+c2/aswBLIRZrYXf6kCj8WFkdLlkuNgst2Rw9j+/z34+lf+C+Ax/817CRnkTFG0T3AIXciDTgqjnJfziFQpQg3MFo3pFfLJIJ6njv09bUzbQOZ1g3WidZhzNA+90z71PW/2rvDGB5V6a8b1tGjOSdeEEU/71Ym/bweYLdxULneq+mCeBLtoLzci6msLdpgfUqaHIN6iSGdncxu4gSxFHFVot6igyRK3Q4EipLbHHA+7hcXRcdxVkz/YrQvlp1wKnqsGR3O5/pt9PamIJfUFEoJ2FHrooui4zgrphNBCpx10XTC2HrhiqRo+t103LwRhJERSpowTgmrHSkuio7jrBQTwz3b9xA7QdRQ3qK+fo6rlymaCq1LDNOUo0evii6KjuOsHAliN5QIBs9RFqaTKEIax1ju7nAGvcZK/dkadVF0HOe0ETRQWtfCEXmIZmG+PMWqLBgy63kciiRnRAyhw/BocVF0HGfl9D3FjuAltsY/JUUxGQ21yISrLHITxaPGRdFxnGNPkeeYTiZolvqdbXmSNdJMr3Id/SNhLoqO4xwf9kLofcxTtDA6hNRhpQNWPCJcFB3HOUZQAu0Vrc7uwmukjS6KjuOsmO4+szRuXxBfrXftstfOSTRcFB3HWTGdCLaip7sqe/MO0MDe8mBHi4ui4zgrpxNEew+6Fbq+GGrevhf52uKi6DjOCgliF+x2r7ATQZp5hy17fY6vDS6KjuOsEMph1ElieBBbD2V3vqHYG4tq6mEnmxJKDW6V0aPARdFxnNXShI/8xvQA9Ts54Yu+Beq6pkk0NU9fVtR3VwuqFmXLPimmb7EGAT1KXBQdx1k5nVco+ZPY3UqYG0Sw5ynawD1Fx3Gc1xQXRcdxnB4uio7jOD1cFB3HcXq4KDqO4/RwUXQcx+nhoug4jtPDRdFxHKeHi6LjOE4PF0XHcZweLoqO4zg9XBQdx3F6uCg6juP0cFF0HMfp4aLoOI7Tw0XRcRynh4ui4zhODxdFx3GcHi6KjuM4PVwUHcdxergoOo7j9HBRdBzH6eGi6DiO08NF0XEcp4eLouM4Tg8XRcdxnB4uio7jOD1cFB3HcXq4KDqO4/RwUXQc0dDqiMOUoxkqpKiiyGYZWm6DCGUUo4hjlHHEddCud3hr2AwPbwkT1VqLktowXTWX11weTOs6fxVcFB1HelLSclozoSBOsVulmNWczNhEtJzjVQEUFMVllmGWJJhTFPM0Qcnxw1oVZxRZCjAGd7Q6Gh44XVLAy5L7WTKBVWYZKaV8KZObxKgSrhOPUHB9HcNau0xCbxcBDmjOrUQNacdXRM3zU9J41awzsJ7Z9Q1NyRPaIK22gJvfxBd+5Zfw8MufxubOK8jqCglPelmX4EV77zw7zmEoF9SRkcbWKDA1iiTidMq6NUcxp1Ly/2hCkRlt4GYVY5u1rUlTDFTpatbeStuqFh5MRG/wTkRsfTHdOv27EwnFs0P76vZX1zWissakpheY73JHO1jfHCLf3UK+ZG7ObGK2u6QTmTB1JQb1EkkrhhJFbmaeamKtb4UoTUyAhFvpSNiuNU/FKk89YllvYYzrkyfw5h//eSQf+Dlg/BjzG7xfnq2wgyPCRdF5sGlYjyh0DRtkQ68vokpJQBLWP1bIULFG67hCkbkaryGfnkMxWGPInGFjMsXmuQvYLRRG7wvXvWE1n3b3ZqhmWlWVCWFZsm3Q8jxHSvWLrl7BkxTDJr9M6dhBde0qzk3oxeYNBmtD7NId1PajokIqV1Jqw0aTDzjKC8CgYhC+ShUIyuaiuI+LorM61H8YJRvYzQsKxBKjIehR0TVcsFnIoxqOcRkTvMSwunn0rXj6vX8T6+98LzA9w1iazVatdrLBCngXUbxrE+OySLH7XdbptpeH2HmdmkeRNJfwma/io7/9G7iwVqC+9hyeiOaYFvRnkxrLGdvRmlaPMeCqg4LbShiZ3Pm4QU09GfLwqfK6KpQ9ZstFcQ8XRWd11BhgUU6RjocUiG2Gz7uYsE3G0rh6gMvVBFfOvBFv+sDfxeT9fxvYYGOca8uMCkMF1YopxzuxOoi7NjF5o2r+d1lH23eCqFC6L4wFBXzG0PnKt3HpS/8KV7/6Maxf/DqewC6aG1cQj4AlNUOym3IkKxhKmyg2mE8ootydi+KtSE8c5wGGl+O4Rl7MeR1eYsj2pQvtki1yZ3QB9Rt+AG//hf8Mkx/+N4EzT3PheXqGjwNn34R6/XGG01xnuIlmsH5nG27cxbTtWdq5O1o9PIdqcAZluoGCXmtej5i+IWZFRkEfYr5got/8Tjz8o38Pb//pfx87G0/g2a0C8foG6oVEJphEpJaoJlyf4/Q5bH4kZXH2cFF0HnAqjEaMVoqbiBYlMnp+dTrAVvYQyqd+CI/8+M8C7/hR1GffhqUEcShbs3B0Zt4MhaZhTFoxNr2DRQzH72yMdmruSKJ1J6NAR1WEuI6RRRkGyZDiPcJkOMVosonhmYdR5ima6SPAw2/FX/uH/zXKx96GSwsK4GCAhNtn2gc9zDqNKLASx+AdZvKKXRRvwUXReaDRTQ40M0wYZo7oQOXzBlfzEYqH3oq1H/gg8L6fwLI5gzm9uWg4RkUBaey5FwoKI7aG/xK6lhE9rzvZXuh7J0PCdNzZ4jgLxvGG4mbH51Cm6Xg8RZFNMEs3gc2nOHMTb/sH/zE9xicxk6fZjOgR6g50hIYKWFENa4bPnQfpnuKtuCg6DzbSJYrEjWsaTygYm7gcncHj7/tJpO/5EJXvPPKMYagWUzwS/onSglq2QMZgVk8M0ofjQvUrHtYUs6uv8A5mzZQWp5zUjSFuw3GbTlOmrUIyyJCXNJwB1t4IPPFOvOVn/gM8X45RZmcplANUec690DWkElYc6lEk65RzbsFF0XmgkdAttxucf8MIszJFOX0YMUNPvI+CODyLOcbSTWRcL5VbBipJxLA4Khh2UowkKgylm4Ze3CFNgntYq6hqJcN3PeeYNBmnUiySc8D0cQrj2/HQD/4NXK1HFMshBukAcVWgohpSS81sJ84tuCg6DzwSPdQZtuIpvp1nePuP/1vA+iMokzG9wQTTssaopPDUu1xZoljQqCa6NaonoCmKetLwcNbu5rDGf5UEmvI44oyMO5QwFvRw8ejTeOSHP4SbozPYjYb0KhlGM/RWH6M8XgyUced2XBSdB55sEOHGdoHl+CyuURjxng+gmVM4sol68ah/FMFG7wAy9IyqIGTWdIIg3j9yN9tOwns2vdkc819DQWRapdecu6TiNckG8Oa3YfDYm7FLgbcwnYeyGyu6uRN9t0fGH0xcFJ0HGj0fW8h7mmxgOVjHk+/8IQoGvar189SMBBE9xE4MTW3ohTV6/5jhaOgP5Cyaev4OZbYtw3ATt3s3pSbhv3BThrmhymm/8kHnkrzhGh592/djNphg1nBuzDW5gvUEcLFpuuXL6XBRdB54ojhBTvdv1qR46t3v54wRhTFFTbFs7G0CKRebSqR4k2Jopo8t0FfrROWwJiG7r3+UxIbirDBe+6PgKUm6/aIIX1/PmT71PcgpivM4RW7PKFIcuaxmuC3hbxPitKj8HOeBJqbrlBclCoWUDz1KjRii2C3sQw/6is0sTSkoQ+TxmFHnGInevKKo0H9ETj3R+1jq2zvUP3lrdsOFPt8hzB44rGgFm7J90aekxBWU7BxjvfGiRJ57GGU6xCIbYM68lnF4E0SP+UhU7Ttjzh4uis4DjfRgvsyxcfaMCZRe22uuXkO2voGEIiJNCd8llJDIqyJcry8j2uy+0U4Oa0yMvUnYerVNk3OW3EQ1b6aZXmKpx3jSjHmUl6gNtIjLFW/bhNPhoug80EgO0mGGG9vbGOhrEFWB6NwmF5SUFd3HBegbYkKZGXLaGoy0hEaZMdMbu7rVcah/kULYsL/DmOm0xhnZW7RMrzOxVFMcE84cjLlOhsnmWcR0fUdcKS6YZr25U855UdCdGRfFPipWx3mAsdsTZntQJJrWhN2Blitm7ti+gATf8ZYtVwDTozvijOf3Uif3l6ZXEO3hbwkgFdTedWYe9P1Gy3dYLWzj7OGi6DiO08NF0XEcp4eLouM4Tg8XRcdxnB4uio7jOD1cFB3HcXq4KDoPPPqZojiOoV/KsxeDqwoRhyv/+aJ7ZO+poT72EVtlKwn5a2mYR33/9oRl8XXBRdFxHKeHi6LjOE4PF0XHcZweLoqO4zg9XBQdx3F6uCg6juP0cFF0nFNB/9ma8BWcYELLaHvfTuzW7ZY7fVwUHedEo5/jb39whdhjifahxc44o67bZxIrmsb1DccIddV0jzE6PVwUHedU0Hl/gkrXfjMxWLes8xK76W6508dF0XEcp4eLouM4Tg8XRcdxnB4uio7jOD1cFB3HcXq4KDqO4/RwUXQeeOyZPXuWj82hquybivreoOafFpbLpX1TscurPbhITto3I18PXBQd57RDMZTgSxD7Qu+CeDAuio5z2mnFTyLYF8LbRdIJuCg6zmmH4bJC5s46YXRRPBgXRcc57bTid3sIfbvn6ARcFB3ntEMxlCDKupstQoJY1y6Kt+Oi6DinnbJEVVW3hM7OnXFRdB5wJBINItqeXDQMMVsTlZbKuzIPK8zTyjXHZcdBZkLKlI92imlNm5KJXAK71xDPr6PO56hqCqRWiRlOczUJQJsjp8VF0XmgkSCURYHpdBJmDIbAzowLEqQMN5d1hRlK7FL+cq5NZ0sqKUXkXKDQKFWx4fShzfr25MUF45+w077ZOrdaLePxFwulTCJeUAsbzAqmjOlHsQBuvoIbf/77OF9dR1LuMHsZ0vEIecUt+d8F4NV4mTgPPIMkwfaNm1gu5hQ8CsrmBmbXr5sQZRTGlOsk9MJiqkhMrbFWQ2sHAanrYa2HTVIDXwXn3baqoY9pj0cjimvFtKXYns0RZRmXcMEu84A5rj/zOTTXX0JaLVEzf3kZ1o0T7lGqetDxHmBcFJ0HGolKQ69pMhwikiBeuQjkuxivDeh11fSucow5f0xBSRuKJhZo4hI19UT6KPlJuJMoKg9p4c0ZBrNm1iS7UP124xr9fzHn2eymopYX9Fy57Whi85qSYbPS+8VPIL/2EoZNjjV6iQqZq7I0iUeSgfqo3To9XBSdB55BmmBAYdugS/j8Z/6CYecOoiGVomY4qtBVyqHX/9Q/R6GpJYwMpmN6WdQ0wrD3Pv5xp0GYbreOg5bJDKWPaaFHq1CeAygyjvIdivsNfOnP/gBrTO9aUtMjppBy9Zr5CXedE0bZkoC9nTnERdF5oNHNiTiNGC5fxtmowHe+8MngYRW72J3vIlIfowLohn6hdIT+WGS9ixJIypD170VgQHpI07b6lZV6z+iHBqOnatafR+uva72KErs0xZICbVJX5RyZofkyBf7qcxiXO8zSDNWCaa5rpHIXKYoN8xVnQw5dFPu4KDoPPMWswOYowmhxA2fLbSw/8+dUywX1b0HhoWCkFMaEFjNYjhiCcl4s+ZHbRQuiomD6MNY1QcnZnUwdf6+2vXvfFOWa7iEdXrv7M0oofje/gy9++HfxyJChv3xIzmeUTfFMMMpS6Sgd4BqFebouin1cFJ0HHnUljiYJpvlNvHFQ4Bsf/j3g4nOYUgfVU7dLBZmnGbVnyrVHNPUksumoQ1LCKJFsR+/dtK16+IKZ53oH082ecMOnHXI7DuyOuLzVMVOyhhmw9QJmn/qXKF76KkbMk7oG6EjquxBEGxT0EfXLfhLGTtSdDhdF54FndIbB8LUCA4bEw/lVpJefxfU//h22jgVGlR7GAQNmCWRMARpQV2iUFU3bwzDUFDWkw5r8zojheUSpi80O+tfdXuE/PT8p47i8zTgbUfC45WKLCb0CfPWjeOZPfxdPn81Qb19HmZeg9oXHiRRjLzVRUijpMQaldHronDjOAwvlATVFYjhlU4hqNPMreKi+jtnXPo7ln/wWZ93AkCG1PeRCDVqWMcqCglgOMKcw5mxC6tmz2PRQJjevFTnd0jZjWpqeVRGqvEG14Lo8Pmq6fRXFTONcZqrNUB+Ly8DsBXz6N/9XnJm9iM14iYiRMwNrNAk9XD27KPSMEamrApH6F51bYKk6zoMMfbB4ijk1paCADCYxzg+XGFz7Jna/8BHgL/6AHuR1jKubaPI5BhSUNI2R0jOT56UGZDc7KKiHtbpiKFtSWE0n9T6y5tWoOKxqztTbJzxezOPqaKaCElMty9X3qT7Ei9zXFj75P/xXeEOyhbPVdVQ3r2J9fcC1E+6awtg1d+2CqE8yKGo7wzFcFJ0HGvXOLfMU0WAT5TBGQTGK6iXOVNeQPvcpvPJH/wz4zB8iuvQljIpLaGZ6jnGHIWyNNbuLqwdhKGISt0NanDU8Pv3NjCKXUaRSjsuSYHm04JDLOK+kf7pY3mQ4vEsF57wh16d3i3GJj/2T/xIP5ReRXf821hXcc3Fd6JnE0BO5R+scKg9mLoq34KLoPOBIIRJkgzFFZ4h50DhkaYO1+SVEL3weX/k//ifkn/pDis8L9BDVb8cwdftFpNsvYVLcQFreoABtHdJuhn5A7jMqgsXVFSTVZWqg7Aqy8iob6jWK9VWkxRWMmutIGNZjQYG+8RyHr+CP/5t/iCfiLUvzWpNbHqJhit1diq7JIofyLjuUbT107oL4KqJGL1GuFPXI6Gqm90rDE/fqpWE8gTJukLLi4OY38YVf+SU8/PKnsbnzCi+mlXUsl3XJ0Ccoe3vxc5x7omkyROkGlvQQ5/UOhoMG44RNYqHQlCuMRrgcTXEppu914Sk89e4PYPMH3gdMN4ElFVQVcDoNw0PBus56HFSMg86E7m6baNG6h8i1LBtwmutfuoSdF57HMx/9MKZsF+Obz2I9v4bNMyMsL84wVOgcD1Bwu6RhAC2x1O7aY9RRZpNsSZzU2Ipo01RG9Ng5mqg8OI+5ZRq5KE2xhTGuT57Am3/855F84OfoGT/GhEvutak6SbXl0eCi6DzgsB6VsT3EXLApqH+QDha9MgqeREj3JtIJrhYJXqmGWIw2UY0ZarMhro3HOH/hUYop6+6hRZFenG2qY/OfKjIbQRhX02xQ5Ll9nEL3p+uysDdSmpKB9GyGavsGpssdrOU38OggxxBLVBR0JX147iEUiyXickFRlAvcwuPVURdS6699BygsWwVB2VwU93FRdFaL7lUM1qh+9QT5vESlh5uHbHDNLpqiREwHa7A+RJNOcbOMMEtSemAUKYajie7o1lJOU7Z7hyqomyqq/3q2x25E61/nJXLY0CscZpkJY0mBXFIM9b72eDDAdMS01nNEy21EFMNsDHqGEbK187h8bQvnN9cRz6/argzuv04SVCZA4QFwhdUuivu4KDqOKpBaYElxo/BVbITby13OX2JzwoZKodRy6hDqjPWUIXVesc7SaxtSYGKKYqRHZw6FnjuU1xYEUR+HkCiaGNpyW0JvtrA6PtDXbfSpHh6/okDqTrUWZHqufCeISDPMUMUjFFw0YBvKCi7oWjmTWXF7eYrh5UTdbDFJXh1B2Y6NKB72TDrO6YHiYW0q1cgMUbWN9azCekI5WrKBWkvl/4yrcDzNlxhXFaYUsIyilPACniA/tMXRnB6nnnqc02ubcX+cpveXmjH0rZcYxpVZ1CypFjOKBrdlerIh06DXs5lMxs6IB2rUDO657Qjadh5auZxZGdMvIbQ0293nFQviMcRF0XE6FLJG+gBX0YqGXqXrlgWT1yYxSRU623L1yYUw9HAWPgkRUchkErRgt386Yn8bU/Gosy6BpJdG7SOxd27ob7Xzb12ufbkgHoSLouM4Tg8XRcdxnB4uio7jOD1cFB3HcXq4KDqO4/RwUXQcx+nhoug4jtPDRdFxHKeHi6LjOE4PF0XHcZweLoqO4zg9XBQdx3F6uCg6juP0cFF0HMfp4aLoOI7Tw0XRcRynh4ui4zhODxdFx3GcHi6KjuM4PVwUHcdxergoOo7j9HBRdBzH6eGi6DiO08NF0XEcp4eLouM4Tg8XRcdxnB4uio7jOD1cFB3HcXq4KDqO4/Q4RqIYtUPRcJKmoVm3TMPOHMc5XRzctk0KWsLS17b9HwNRjPgvocWI9vIaRDGyISdjJTNG03DdSOtxugnLbJHjOKeDTgDZtpOYyhBRGyQMtfQgtP+gBe1q3fpHyDGSlD1FJMppZ0LLaBTFvXHHcU4Zt7ftML43py8JryHuZzmO4/RwUXQcx+nhoug4jtPDRdFxHKeHi6LjOE4PF0XHcZweJ0MUowh5nrcTQFVVNk+PL+0/2+g4zmmkaRpkWYayLBENBpph84zXQABOjCjGsR7alhCGcaFy6crGcZzTicRwTwSLgqq1L1tNXbdjR8fJEEUWSJqm7YTKpFcoLoqOc6pRG++cIosYk/YtF1t29AJwMkSR4XLCgqh5VVAhWIHYsF3uOM6pRe28E0XrOuvRd5COihMnijIrJRdFx3kgkPDJGZJJBxhP27jxGojAyRBFoo5W0Yli8BhfkzJxHOcY0XmIavuD6TT0K3Z04niEnAxRTFMMh0MrHMOV0HEeGOQpShCt/Z85I89oL2ze8xiPkGMhivookNCnwph9jiijmqKrHNGSjP+HaOg6NzHXjRtUXFpGAxS0OtJWkZn29WpzHOdYosbZWoSSbblBLcGTJFDwYosIE85PUadDiuJ5u9FCVeQKWo/jR8zKRVGiVdFq/oux4Jw5Z9JVtvkpM82C4PDCE0+iTGOKYI3FYoZ0PMZuM8Z2PcYSAxZnYla0w5J7q8wkirGZlXTvJLi5uR0Dm9HYNJO0pqNTIY/ZjiV2ZYMm57yiRjLcwFZNLdg4j3q5tA0XS7lGEsXgVB0VKxdFIWEM6M6STCUlMaNniIyTAyRPvwNbVYZ4/RyvGAnmiwUG2QAZQ2tzHnsmLzvmHxvu7Vv7vAtazc3N7fW3KY3Nfk6tWzQRipjOENu2mj4dRKrlENdmdHPOPsYGPUG8ec40YzQcYDGnE3XERIzJv4tavLbo4CVNvlxSK4N6W4VTUUavb0Afkf7ezitAfRlf/19+EaOLX8JD1XVEuzcwHk9RLBdIY/mDfwVuz6lpL71Uc8+PxfXBcR4okkZ9hUCRl9gerCEaUfSaAsNygdFyjprisEsv8dvpI3j7z/4jxO/7KXqRG9jJgbOj8HYLYg6P0L87RkogWWNyGhm9POZVc8w9Hp+ji53g6X/9b+Fqs4FluonheB3Id5HlFESJ253sFrTH9jiy9tPmmmfHc3Nze12tpttTlnSA4nVkww0kSYZGj9xIDeklVlmMcnIG9cbDiN/+g2gqrp+M6RCtY7Z9gzso2M6P9q2WY+EpVvxj8sQrhPoTTbcohlXMAuJYyj/V1ReQRDfw5V/9ZWTf/iSebC5jvLhKYeQKelrHtmmHbY706wVys/W7DmFWuPHSX9l6HBv5qkf/upDjOHenYTRY1GM06Yhi16Aod9nedzGhGMZpxnB6gheiC1h/z0/g0Z/5T7GNTVSjc9wqRr11EWvra2zG4b7DUSEtWimSp4R/1Bdod5Jimjw4+tTBh6NrTb1Kzj0OrD2GN77nRzEbP4JLS66XcI22n9UEUMbJ/XH+2aM/HpYFC1OO46wG3QSV25Lm2xhXu1jT/VU6KTdnJV4uGBo//FY8+iM/yRUzjEYb3KLG9pzrTjUuj+hoZWzlnuKtmKTROq8t3DVe5A3GGUVtvgVsvYCrH/m/cO1Tv4cLs2cxza9RP+XxCW7L/5387Q/7gqjxdu292ceoCBznAYJSiGWeYjykuOU3g5MzZVOfAa9gHc2T78FbfuLfA971N7G7U2FI50g3X/V0SsaV57tzTKfjsLMj4hiI4r4I1sykpiSFulKE+fLmUiwWOYa8IMR6ZOfyV/H87/zvyL/5UWwuGUY3c2R1YWuaMUvduD3nxKFxQE4bCqoZ13Ic5/VFfYp5kWIyYtun02NBIkXxxUWExSM/hLd88B8getffoVA+jDpJECnMrkqkyZTbxRxSE7RNu7+j4BiIIoWvUcdghCIatjIo8WNx2fwa+aLAYDTlGAtluYuougFc+xa2P/mH+NbHfh8P5ZcwKra5XZBVRdWxOl/LgpuzABmbm9Ayp7cXnjKvHkUJo+M4ry8V/b08mrDlVhgNFqjTCDeaIfIzb8Vj7/8ZjH/kp4HhY/Qg6Q1Ger2vlataj+ql3C6I4lGq4jEQxYqZWzAlEXJMTKCUv5SZz9oHua0c4gxlk6HIc4xjrtXsAhefAZ77LL78//46xguG0VxxkDBYrgqU+RwDFtaUbnmZL0wkzR/se45EY+4pOs5qKCO28miMwboes9nCJYbDF773B/GWv/2zwFs+gGa5hnp6getRE6KKTo8cHbZaCqIJo9A9ltMlihK4IIpLimL3xKFEcWCiyEIouU424pwRcqaW/iILiPMqCuP2K8DsRcw//if47Kf+EvPdbayPByaI5WIXtcQxjVtR7ITRDmFoOrYZKy4Gx3kAkSgWw3VcWpTYeMOb8O4f+0kM3vF+LtnEolxHOjmDnO6gAjndjE3oJKVylGpOmLfIVfWY4ukSxb6nOKZEdqKovLaiuOTyAUUxlieZomCKG31OrM4xKimMs0ssIK4jN7pYMrS+gsVVziuXGFEg6V5ygRxtbajs9ktQ0+0yx3FeX/TEyWNPAucfBdbPsykOsRuts72fYyuNUND3Gajf0NYN92ESuU56jq9SO6ZlXNpv0vfJ8elTpCgWGEoiDWU+kyCGHj8uV6+g3nGOTRTlQassBtpe/Yx61lCfFdPDnJqn53zkAeqqUrX76AuiLj17Jdkfdxznr8x9Nxu21dkO6L2gWTuHBQVxTsdHOjBgc9UTiBmHOkxt2qc2rGdSGPGZWHDJEd9pOQaiqMMrd/oARLj7LJTHMMVl9sR6zAuDgmorRkNXD62nrTUuayiKNT1D25bjxXKJ4doal7SYGHZbtqaB4ziHomuzd+JuEmNfxYrD8t0mpiiyjdMUEY9oEsbQ4NnKk5rHajipBiu3KTa/x55xPkKOgSgG7paIvKS7zKtBzNzv5V9eYZWj4rBJMkRpYkIYbpmEYrO9Knt7XmF47lGmctYxNTex9TupdRznXjmsiKhFNwz7yrq0jz/svbLBeXHBpYluqDCSjCmKMaNALtbXs0qLGsONFomnJPKoOBai2CUgCNk+mi+TXGmZxquSAkbPMdNd5lbaGrszHW6iJBRADeuahaiPUerbazaHxhBcHyjr9qmh9qui1UfGHMe5d9SO7oa8uzsTo6zYbhN9z6pAQ0dHrTWWQjZsmXSIELG1KlbWUyds9/ZsY08U9ej2qRPFu3FQ4vbFs1uqYhSSvj77y7thN6e/Xy3dX+I4zuvHfsvrnJw99HGYMBJM4mh0zk1o111n2FFx7EXRcRzn9aSTYsdxHIe4KDqO4/RwUXQcx+nhoug4jtPDRdFxHKeHi6LjOE4PF0XHcZweLoqO4zg9XBQdx3F6uCg6juP0cFF0HMfZA/j/AbILSHaxiaXmAAAAAElFTkSuQmCC;" vertex="1" parent="1">
          <mxGeometry x="200" y="420" width="113.74" height="121.79" as="geometry" />
        </mxCell>
        <mxCell id="XxjnSEMZ1NFvPs1HtGaW-66" value="" style="group" vertex="1" connectable="0" parent="1">
          <mxGeometry x="-10" y="522" width="106.42000000000002" height="99.5" as="geometry" />
        </mxCell>
        <mxCell id="XxjnSEMZ1NFvPs1HtGaW-64" value="" style="outlineConnect=0;dashed=0;verticalLabelPosition=bottom;verticalAlign=top;align=center;html=1;shape=mxgraph.aws3.queue;fillColor=#D9A741;gradientColor=none;" vertex="1" parent="XxjnSEMZ1NFvPs1HtGaW-66">
          <mxGeometry width="106.42" height="69.5" as="geometry" />
        </mxCell>
        <mxCell id="XxjnSEMZ1NFvPs1HtGaW-65" value="Produ&lt;span style=&quot;background-color: initial;&quot;&gt;ção&lt;/span&gt;" style="text;html=1;align=center;verticalAlign=middle;whiteSpace=wrap;rounded=0;fontSize=24;" vertex="1" parent="XxjnSEMZ1NFvPs1HtGaW-66">
          <mxGeometry x="23.20999999999998" y="69.5" width="60" height="30" as="geometry" />
        </mxCell>
        <mxCell id="XxjnSEMZ1NFvPs1HtGaW-67" value="" style="group" vertex="1" connectable="0" parent="1">
          <mxGeometry x="-30" y="700" width="106.42000000000002" height="99.5" as="geometry" />
        </mxCell>
        <mxCell id="XxjnSEMZ1NFvPs1HtGaW-68" value="" style="outlineConnect=0;dashed=0;verticalLabelPosition=bottom;verticalAlign=top;align=center;html=1;shape=mxgraph.aws3.queue;fillColor=#D9A741;gradientColor=none;" vertex="1" parent="XxjnSEMZ1NFvPs1HtGaW-67">
          <mxGeometry width="106.42" height="69.5" as="geometry" />
        </mxCell>
        <mxCell id="XxjnSEMZ1NFvPs1HtGaW-69" value="Pedidos" style="text;html=1;align=center;verticalAlign=middle;whiteSpace=wrap;rounded=0;fontSize=24;" vertex="1" parent="XxjnSEMZ1NFvPs1HtGaW-67">
          <mxGeometry x="23.20999999999998" y="69.5" width="60" height="30" as="geometry" />
        </mxCell>
        <mxCell id="XxjnSEMZ1NFvPs1HtGaW-92" style="edgeStyle=orthogonalEdgeStyle;rounded=0;orthogonalLoop=1;jettySize=auto;html=1;entryX=0.5;entryY=1;entryDx=0;entryDy=0;" edge="1" parent="1" source="XxjnSEMZ1NFvPs1HtGaW-87" target="XxjnSEMZ1NFvPs1HtGaW-69">
          <mxGeometry relative="1" as="geometry" />
        </mxCell>
        <mxCell id="XxjnSEMZ1NFvPs1HtGaW-87" value="" style="triangle;whiteSpace=wrap;html=1;rotation=-90;fillColor=#fa6800;strokeColor=#C73500;fontColor=#000000;" vertex="1" parent="1">
          <mxGeometry x="-140" y="980" width="60" height="80" as="geometry" />
        </mxCell>
        <mxCell id="XxjnSEMZ1NFvPs1HtGaW-89" style="edgeStyle=orthogonalEdgeStyle;rounded=0;orthogonalLoop=1;jettySize=auto;html=1;entryX=0.089;entryY=0.092;entryDx=0;entryDy=0;entryPerimeter=0;" edge="1" parent="1" source="XxjnSEMZ1NFvPs1HtGaW-76" target="XxjnSEMZ1NFvPs1HtGaW-87">
          <mxGeometry relative="1" as="geometry" />
        </mxCell>
        <mxCell id="XxjnSEMZ1NFvPs1HtGaW-90" style="edgeStyle=orthogonalEdgeStyle;rounded=0;orthogonalLoop=1;jettySize=auto;html=1;entryX=1;entryY=0.5;entryDx=0;entryDy=0;" edge="1" parent="1" source="XxjnSEMZ1NFvPs1HtGaW-64" target="XxjnSEMZ1NFvPs1HtGaW-84">
          <mxGeometry relative="1" as="geometry" />
        </mxCell>
        <mxCell id="XxjnSEMZ1NFvPs1HtGaW-91" style="edgeStyle=orthogonalEdgeStyle;rounded=0;orthogonalLoop=1;jettySize=auto;html=1;entryX=1;entryY=0.5;entryDx=0;entryDy=0;" edge="1" parent="1" source="XxjnSEMZ1NFvPs1HtGaW-68" target="XxjnSEMZ1NFvPs1HtGaW-10">
          <mxGeometry relative="1" as="geometry" />
        </mxCell>
        <mxCell id="XxjnSEMZ1NFvPs1HtGaW-93" style="edgeStyle=orthogonalEdgeStyle;rounded=0;orthogonalLoop=1;jettySize=auto;html=1;entryX=1;entryY=0.5;entryDx=0;entryDy=0;entryPerimeter=0;" edge="1" parent="1" source="XxjnSEMZ1NFvPs1HtGaW-87" target="XxjnSEMZ1NFvPs1HtGaW-64">
          <mxGeometry relative="1" as="geometry" />
        </mxCell>
      </root>
    </mxGraphModel>
  </diagram>
</mxfile>
